<svg width="631" height="675" viewBox="0 0 631 675" fill="none" xmlns="http://www.w3.org/2000/svg">
<path fill-rule="evenodd" clip-rule="evenodd" d="M94.5552 255.239C91.8958 253.807 89.7332 251.623 87.6135 249.471C82.1457 243.921 76.6096 238.281 72.8158 231.476C72.4546 230.828 72.0994 230.084 72.3077 229.372C72.516 228.66 73.6031 228.256 74.0095 228.877C80.6039 238.944 88.9315 247.873 98.5156 255.152C97.6538 256.31 95.8267 255.923 94.5552 255.239Z" fill="#00160A"/>
<path fill-rule="evenodd" clip-rule="evenodd" d="M102.521 127.821C104.092 126.202 104.93 124.025 105.653 121.888C107.909 115.226 109.447 108.321 110.23 101.331C110.371 100.072 110.602 98.6221 111.695 97.9805C112.923 103.974 111.401 110.151 109.888 116.079C108.558 121.29 107.085 126.762 103.313 130.596C102.931 130.984 102.444 131.379 101.907 131.29C101.183 131.169 100.893 130.207 101.152 129.52C101.41 128.834 102.01 128.347 102.521 127.821L102.521 127.821Z" fill="#00160A"/>
<path fill-rule="evenodd" clip-rule="evenodd" d="M481.722 180.097C482.47 179.897 483.231 180.487 483.557 181.189C483.883 181.891 483.907 182.689 484.052 183.449C484.62 186.42 487.298 188.857 490.308 189.143C490.683 190.016 489.853 190.889 489.197 191.576C487.703 193.139 486.76 195.218 486.568 197.372C486.444 198.769 486.15 200.714 484.747 200.695C483.62 200.681 483.125 199.317 482.719 198.265C481.727 195.696 479.489 193.641 476.845 192.871C476.29 192.71 476.057 192 476.209 191.443C476.362 190.885 476.785 190.449 477.189 190.035C478.926 188.253 480.689 186.142 480.67 183.654C480.66 182.308 480.422 180.445 481.722 180.097Z" fill="#FFB61D"/>
<path fill-rule="evenodd" clip-rule="evenodd" d="M534.38 413.901C532.047 416.298 531.221 420.05 532.331 423.205C531.102 423.754 530.183 422.06 529.574 420.859C528.662 419.055 526.936 417.684 524.974 417.201C527.816 415.408 529.585 412.034 529.443 408.676C530.586 407.931 531.865 409.483 532.193 410.807C532.522 412.132 533.016 413.854 534.38 413.901Z" fill="#E7EAEE"/>
<path fill-rule="evenodd" clip-rule="evenodd" d="M514.472 418.396C515.824 420.542 517.748 422.326 519.991 423.512C520.797 423.938 520.066 425.125 519.401 425.747C517.724 427.314 516.663 429.523 516.486 431.811C515.019 430.341 513.553 428.872 512.087 427.402C511.501 426.816 510.884 425.906 511.388 425.248C512.926 423.243 513.991 420.877 514.472 418.396Z" fill="#E7EAEE"/>
<path fill-rule="evenodd" clip-rule="evenodd" d="M416.524 159.942C417.859 151.444 421.084 143.092 426.751 136.62C432.418 130.148 440.691 125.73 449.293 125.737C457.895 125.744 466.582 130.616 470.157 138.44C472.007 142.489 472.461 147.046 472.335 151.495C472.096 159.957 469.823 168.354 465.762 175.782C462.099 182.479 456.834 188.503 449.999 191.901C443.163 195.298 434.644 195.755 427.999 191.999C422.737 189.025 419.056 183.687 417.302 177.903C415.548 172.119 415.587 165.912 416.524 159.942M469.101 153.511C469.256 148.242 468.387 142.801 465.616 138.317C463.932 135.59 461.572 133.284 458.808 131.663C449.893 126.435 437.759 129.244 430.354 136.453C422.949 143.663 419.74 154.319 419.409 164.649C419.233 170.159 419.825 175.809 422.168 180.799C424.51 185.789 428.797 190.057 434.136 191.429C441.123 193.223 448.496 189.845 453.974 185.152C463.114 177.322 468.747 165.541 469.101 153.511Z" fill="#FFB61D"/>
<path fill-rule="evenodd" clip-rule="evenodd" d="M504.551 154.041C503.129 155.901 501.641 158.343 502.733 160.415C503.123 161.156 502.113 162.018 501.309 161.784C500.504 161.55 500.047 160.701 499.833 159.891C499.619 159.081 499.549 158.212 499.12 157.493C498.69 156.774 497.714 156.275 497.003 156.718C495.992 156.598 495.888 155.074 496.476 154.242C497.064 153.41 498.03 152.838 498.391 151.885C498.677 151.131 498.524 150.285 498.659 149.49C498.795 148.695 499.472 147.846 500.252 148.049C500.226 149.446 500.388 150.896 501.097 152.101C501.806 153.306 503.163 154.207 504.551 154.041Z" fill="#FFB61D"/>
<path fill-rule="evenodd" clip-rule="evenodd" d="M377.305 151.288C378.417 149.994 379.814 148.888 381.453 148.417C383.093 147.946 384.994 148.194 386.274 149.321C387.667 150.548 388.104 152.597 387.808 154.429C387.511 156.26 386.587 157.925 385.615 159.506C384.354 161.557 382.984 163.541 381.513 165.448C381.054 166.044 380.55 166.658 379.846 166.923C378.917 167.274 377.881 166.933 376.964 166.55C373.744 165.203 370.751 163.315 368.149 160.988C365.767 158.857 363.57 155.733 364.535 152.686C365.15 150.745 367.028 149.34 369.042 149.041C371.057 148.741 373.144 149.451 374.746 150.708C375.512 151.31 376.67 152.026 377.305 151.288M367.131 152.415C365.61 154.508 367.261 157.439 369.178 159.176C371.569 161.344 374.408 162.946 377.221 164.529C377.582 164.732 377.986 164.943 378.392 164.855C378.753 164.777 379.021 164.481 379.259 164.199C381.165 161.941 382.871 159.516 384.353 156.96C385.493 154.994 386.33 152.106 384.494 150.767C383.04 149.709 380.922 150.562 379.69 151.871C378.458 153.181 377.683 154.89 376.336 156.082C375.285 154.425 374.167 152.703 372.462 151.731C370.757 150.758 368.285 150.828 367.131 152.415H367.131Z" fill="#FFB61D"/>
<path fill-rule="evenodd" clip-rule="evenodd" d="M355.521 94.103C359.008 91.3844 362.885 89.1666 366.996 87.5387C369.516 86.5407 372.392 85.7726 374.883 86.8413C378.874 88.5538 379.652 94.2851 377.552 98.0868C375.452 101.888 371.469 104.193 367.677 106.311C360.241 110.464 352.805 114.618 345.37 118.771C346.834 115.848 345.182 112.418 343.829 109.442C340.782 102.74 339.187 95.3817 339.186 88.0195C339.185 85.6938 339.359 83.2981 340.379 81.2081C341.4 79.1181 343.436 77.3848 345.761 77.3301C349.481 77.2425 351.955 81.1171 353.21 84.6207C354.309 87.6889 355.085 90.8729 355.521 94.103ZM371.28 88.7745C365.266 89.9964 359.663 93.1603 355.511 97.6787C355.102 98.1237 354.307 97.9276 353.933 97.4524C353.56 96.9772 353.488 96.34 353.417 95.7398C352.949 91.765 351.909 87.858 350.341 84.1758C349.466 82.1231 348.002 79.8562 345.771 79.8201C344.118 79.7933 342.679 81.1174 342.069 82.6545C341.46 84.1916 341.511 85.9027 341.628 87.5523C342.28 96.7519 344.701 105.823 348.718 114.125C355.296 110.439 361.874 106.752 368.452 103.066C370.505 101.916 372.594 100.737 374.189 99.0086C375.785 97.2798 376.835 94.8777 376.371 92.5711C375.908 90.2646 373.586 88.3061 371.28 88.7745Z" fill="#FFB61D"/>
<path fill-rule="evenodd" clip-rule="evenodd" d="M309.493 549.766C328.693 547.578 348.016 546.477 367.339 546.469C370.884 546.467 373.968 543.713 375.408 540.474C376.848 537.236 376.963 533.582 376.965 530.037C376.972 516.867 375.733 503.732 374.496 490.62C373.994 485.303 373.493 479.985 372.991 474.668C372.686 471.441 372.363 468.143 371.005 465.2C368.647 460.094 363.426 456.774 357.987 455.344C352.548 453.914 346.831 454.11 341.211 454.316C322.551 454.999 303.891 455.682 285.231 456.365C295.987 452.421 307.702 452.236 319.159 452.096C327.942 451.988 336.725 451.881 345.508 451.774C354.485 451.664 364.743 452.115 370.47 459.029C374.17 463.496 374.986 469.613 375.605 475.38C377.552 493.538 378.978 511.752 379.881 529.992C380.181 536.037 379.939 543.14 375.017 546.662C372.264 548.632 368.693 548.927 365.316 549.156C344.752 550.549 324.188 551.942 303.625 553.335C298.796 553.662 293.708 553.941 289.364 551.807C287.855 551.066 286.305 549.389 287.115 547.917C293.8 551.557 301.93 550.628 309.493 549.766Z" fill="#00160A"/>
<path fill-rule="evenodd" clip-rule="evenodd" d="M228.165 258.484C228.55 259.06 228.638 259.778 228.715 260.466C228.895 262.068 229.075 263.671 229.255 265.274C229.469 267.175 229.513 269.475 227.936 270.56C227.096 271.138 226.012 271.185 224.993 271.213C203.541 271.793 182.09 272.372 160.639 272.952C159.259 272.989 157.662 272.929 156.816 271.838C156.285 271.154 156.203 270.233 156.154 269.368C155.997 266.65 155.954 263.927 156.023 261.206C156.034 260.791 156.058 260.346 156.315 260.021C156.623 259.631 157.166 259.536 157.658 259.469C179.823 256.466 202.286 255.674 224.607 257.106C225.925 257.191 227.431 257.387 228.165 258.484M227.284 268.91C225.105 267.733 227.3 264.283 226.508 261.937C225.827 259.922 223.241 259.445 221.117 259.324C200.891 258.172 180.559 258.891 160.464 261.467C159.724 261.562 158.903 261.704 158.454 262.3C158.01 262.889 158.09 263.706 158.191 264.436C158.348 265.566 158.504 266.696 158.66 267.827C158.784 268.717 158.972 269.716 159.72 270.215C160.263 270.577 160.962 270.573 161.613 270.557C183.503 270.008 205.394 269.459 227.284 268.91Z" fill="#00160A"/>
<path fill-rule="evenodd" clip-rule="evenodd" d="M268.518 296.461C268.62 294.081 268.722 291.7 268.824 289.319C269.024 284.676 269.267 279.86 271.425 275.745C273.583 271.629 278.24 268.431 282.763 269.5C285.591 270.169 288.2 272.393 291.045 271.796C293.522 271.276 295.041 268.827 297.134 267.403C302.123 264.009 309.076 267.162 313.202 271.565C317.648 276.311 320.539 282.491 321.33 288.946C321.397 289.494 321.431 290.109 321.078 290.534C320.786 290.885 320.308 291.007 319.862 291.109C318.145 291.503 316.428 291.896 314.71 292.289C313.248 292.624 311.731 292.96 310.262 292.656C308.792 292.352 307.382 291.219 307.263 289.724C306.825 298.082 313.084 306.066 311.34 314.252C310.691 313.898 310.043 313.543 309.394 313.189C310.924 304.98 303.609 297.033 305.136 288.824C305.338 287.737 305.774 286.581 306.745 286.053C307.717 285.526 309.253 286.125 309.215 287.23C309.154 288.999 311.063 290.321 312.834 290.306C314.604 290.291 316.214 289.342 317.727 288.421C318.265 288.094 318.118 287.283 317.893 286.694C316.22 282.303 314.019 278.113 311.354 274.242C309.553 271.626 307.382 269.04 304.389 267.978C301.396 266.915 297.442 267.999 296.34 270.978C295.051 274.465 290.177 274.7 286.598 273.695C283.019 272.689 279.002 271.12 275.809 273.023C273.138 274.615 272.244 278.007 271.744 281.075C270.886 286.339 270.49 291.678 270.562 297.011C270.707 297.825 271.744 298.087 272.571 298.066C276.924 297.953 280.967 294.519 281.782 290.241C282.955 291.59 283.374 293.418 283.754 295.165C285.068 301.216 286.382 307.267 287.696 313.318C288.101 315.181 287.628 318.044 285.753 317.705C284.903 311.105 283.644 304.559 281.985 298.115C278.849 298.828 275.714 299.54 272.578 300.253C271.616 300.472 270.54 300.674 269.698 300.16C268.536 299.45 268.46 297.822 268.518 296.461Z" fill="#00160A"/>
<path fill-rule="evenodd" clip-rule="evenodd" d="M360.248 460.802C361.848 462.536 359.362 465.737 360.827 467.585C361.588 468.545 361.046 470.067 360.038 470.762C359.031 471.457 357.74 471.55 356.518 471.621C335.511 472.842 314.504 474.063 293.497 475.283C292.069 475.366 290.363 475.318 289.583 474.119C289.242 473.596 289.159 472.951 289.086 472.33C288.894 470.716 288.702 469.102 288.51 467.487C288.45 466.981 288.396 466.438 288.635 465.987C289.027 465.243 290.003 465.081 290.841 465.007C312.919 463.059 335.022 461.411 357.145 460.066C358.244 459.999 359.501 459.993 360.248 460.802ZM357.837 463.529C357.769 463.131 357.679 462.695 357.36 462.446C357.043 462.198 356.599 462.215 356.197 462.245C336.609 463.673 317.021 465.1 297.433 466.528C295.85 466.644 294.208 466.776 292.825 467.556C291.442 468.336 290.4 469.961 290.815 471.493C290.943 471.968 291.217 472.419 291.638 472.674C292.153 472.986 292.797 472.963 293.399 472.931C314.08 471.809 334.76 470.687 355.441 469.565C357.899 469.432 358.253 465.956 357.837 463.529Z" fill="#00160A"/>
<path fill-rule="evenodd" clip-rule="evenodd" d="M376.822 441.992C380.54 451.776 381.726 462.309 382.881 472.712C385.565 496.881 388.248 521.049 390.932 545.218C388.935 545.382 388.015 542.819 387.766 540.831C383.701 508.312 382.392 475.374 375.517 443.331C375.952 442.885 376.387 442.438 376.822 441.992Z" fill="#00160A"/>
<path fill-rule="evenodd" clip-rule="evenodd" d="M256.883 273.638C256.304 273.391 256.316 272.488 256.759 272.042C257.203 271.596 257.875 271.489 258.499 271.409C263.17 270.816 267.88 270.527 272.588 270.544C272.338 272.553 269.744 273.141 267.722 273.234C264.324 273.391 260.926 273.548 257.528 273.705C257.31 273.715 257.083 273.724 256.883 273.638L256.883 273.638Z" fill="#00160A"/>
<path fill-rule="evenodd" clip-rule="evenodd" d="M283.236 519.42C282.848 512.227 282.46 505.033 282.072 497.84C281.028 478.478 279.951 458.918 274.561 440.293C273.873 437.915 273.087 435.501 271.562 433.55C267.746 428.667 260.682 428.106 254.485 428.106C230.591 428.107 206.698 430.38 183.232 434.882C180.847 435.34 178.368 435.865 176.466 437.373C173.443 439.77 172.645 443.983 172.365 447.831C171.852 454.856 172.36 461.954 173.866 468.835C173.004 468.691 172.142 468.547 171.279 468.403C168.118 461.817 166.677 454.415 167.139 447.124C167.339 443.958 167.922 440.734 169.553 438.014C173.61 431.247 182.542 429.623 190.387 428.783C210.292 426.651 230.271 425.215 250.276 424.479C258.328 424.183 267.427 424.408 272.953 430.272C275.733 433.222 277.141 437.186 278.246 441.086C282.085 454.632 283.144 468.788 284.184 482.83C285.2 496.549 286.216 510.269 287.232 523.989C287.471 527.213 287.707 530.488 287.054 533.655C284.928 543.974 273.939 550.252 263.477 551.5C253.015 552.748 242.482 550.357 231.948 550.181C217.781 549.945 203.53 553.712 189.558 551.359C185.534 550.681 181.255 549.255 179.043 545.826C177.508 543.447 177.231 540.498 176.996 537.677C175.339 517.778 173.682 497.879 172.025 477.979C171.914 476.647 172.905 474.661 173.929 475.521C175.756 494.688 177.583 513.856 179.41 533.024C179.657 535.619 179.926 538.288 181.132 540.599C182.883 543.953 186.415 546.086 190.078 547.036C193.741 547.985 197.58 547.908 201.363 547.859C217.371 547.65 233.386 548.048 249.363 549.053C254.706 549.389 260.107 549.791 265.385 548.894C270.663 547.998 275.9 545.646 279.176 541.412C283.842 535.381 283.647 527.034 283.236 519.42Z" fill="#00160A"/>
<path fill-rule="evenodd" clip-rule="evenodd" d="M256.072 265.859C257.561 264.696 256.309 262.315 256.602 260.449C257.018 257.808 260.304 256.901 262.959 256.594C280.015 254.623 297.19 253.691 314.359 253.805C315.787 253.814 317.476 253.973 318.195 255.208C319.059 256.69 318.255 259.276 319.89 259.795C320.657 260.039 321.642 259.588 322.223 260.145C323.185 261.066 321.393 262.31 320.067 262.429C299.975 264.232 279.84 265.552 259.685 266.386C258.452 266.437 257.144 266.47 256.072 265.859M316.087 257.538C315.618 256.358 314.048 256.185 312.778 256.205C296.591 256.451 280.413 257.251 264.28 258.603C262.389 258.762 260.157 259.156 259.368 260.882C258.989 261.864 259.712 262.993 260.665 263.439C261.618 263.884 262.72 263.827 263.77 263.76C279.885 262.738 296 261.716 312.116 260.694C313.107 260.631 314.141 260.555 314.996 260.049C315.851 259.542 316.455 258.462 316.087 257.538Z" fill="#00160A"/>
<path fill-rule="evenodd" clip-rule="evenodd" d="M337.809 494.013C340.294 495.988 339.231 500.314 341.393 502.638C342.398 503.719 343.904 504.141 345.32 504.555C346.231 504.822 347.358 505.491 347.068 506.394C346.772 507.319 345.424 507.17 344.519 506.816C341.566 505.658 338.235 503.735 338.072 500.567C337.953 498.255 337.266 495.974 336.088 493.981C336.42 493.419 337.298 493.607 337.809 494.013V494.013Z" fill="#00160A"/>
<path fill-rule="evenodd" clip-rule="evenodd" d="M349.562 526.771C348.753 516.347 347.943 505.922 347.134 495.497C347.015 493.965 346.879 492.376 346.121 491.04C345.362 489.703 343.79 488.696 342.305 489.095C335.59 490.896 328.616 491.731 321.665 491.567C315.588 491.423 309.369 490.535 303.522 492.199C303.63 495.095 303.739 497.99 303.848 500.885C303.88 501.731 303.928 502.628 304.409 503.324C305.757 505.275 309.105 503.788 309.865 501.541C310.626 499.295 309.939 496.838 310.069 494.469C310.092 494.05 310.176 493.573 310.533 493.351C311.292 492.879 312.021 494.005 312.215 494.877C312.773 497.375 313.329 499.99 312.671 502.464C312.013 504.938 309.719 507.179 307.18 506.852C304.549 506.513 303.473 510.108 303.409 512.76C303.282 518.052 303.155 523.343 303.028 528.635C302.988 530.301 303.587 532.602 305.243 532.414C309.516 531.93 313.79 531.445 318.064 530.961C319.097 530.844 320.207 530.741 321.116 531.246C322.024 531.751 322.505 533.127 321.76 533.852C316.741 534.292 311.721 534.732 306.701 535.172C305.235 535.3 303.714 535.422 302.331 534.919C300.948 534.417 299.743 533.101 299.869 531.635C301.104 517.239 301.38 502.762 300.696 488.329C300.55 485.259 304.29 483.7 307.311 483.134C316.9 481.336 326.68 480.556 336.433 480.812C339.703 480.898 343.267 481.222 345.638 483.475C348.052 485.769 348.526 489.383 348.859 492.696C350.106 505.115 351.354 517.533 352.602 529.951C352.669 530.621 352.685 531.417 352.149 531.825C351.83 532.068 351.4 532.094 350.999 532.111C346.837 532.284 342.675 532.457 338.512 532.63C336.307 532.722 333.934 532.769 332.098 531.544C330.838 530.704 330.006 529.369 329.274 528.044C327.52 524.864 326.117 521.491 325.102 518.004C323.51 521.99 322.502 526.208 322.12 530.483C320.109 530.701 319.735 527.683 320.202 525.714C321.167 521.652 322.132 517.591 323.097 513.529C323.244 512.911 323.479 512.193 324.085 512.003C324.977 511.722 325.662 512.79 325.988 513.667C327.347 517.32 328.707 520.973 330.066 524.626C331.236 527.77 334.611 529.66 337.943 530.047C341.275 530.435 344.615 529.596 347.865 528.764C348.508 528.599 349.237 528.362 349.487 527.747C349.611 527.442 349.588 527.1 349.562 526.771ZM304.281 488.602C307.295 488.641 310.309 488.68 313.323 488.719C315.587 488.749 317.852 488.778 320.117 488.735C328.291 488.581 336.448 487.485 344.373 485.475C342.605 483.66 339.769 483.558 337.236 483.603C328.171 483.765 319.112 484.293 310.089 485.183C307.675 485.422 304.674 486.208 304.281 488.602L304.281 488.602Z" fill="#00160A"/>
<path fill-rule="evenodd" clip-rule="evenodd" d="M290.788 480.796C290.616 479.853 291.838 479.338 292.785 479.192C303.721 477.497 314.802 476.748 325.867 476.955C326.025 476.958 326.189 476.962 326.336 477.023C326.855 477.24 326.83 478.058 326.418 478.441C326.006 478.824 325.399 478.888 324.838 478.93C314.302 479.72 303.612 479.314 293.29 481.568C292.332 481.777 290.965 481.761 290.788 480.796L290.788 480.796Z" fill="#00160A"/>
<path fill-rule="evenodd" clip-rule="evenodd" d="M535.344 458.154C535.948 456.73 536.614 455.226 537.896 454.36C538.977 453.629 540.332 453.468 541.63 453.327C545.48 452.909 549.33 452.491 553.18 452.073C555.084 451.866 557.542 451.064 557.469 449.15C557.236 442.969 557.714 435.85 562.624 432.089C567.116 428.648 573.842 429.592 578.45 432.874C583.059 436.157 585.979 441.27 588.497 446.337C589.612 448.581 592.666 448.99 595.135 448.557C597.603 448.125 600.105 447.154 602.54 447.745C606.289 448.655 608.184 452.75 609.472 456.387C615.938 474.636 620.327 493.662 628.369 511.274C631.377 517.861 630.425 526.081 625.991 531.806C625.444 527.26 626.206 522.564 628.162 518.423C629.084 516.473 626.016 515.19 623.858 515.196C601.873 515.252 579.793 515.315 558.051 518.576C557.387 518.676 556.681 518.798 556.186 519.252C555.705 519.692 555.517 520.36 555.351 520.991C554.677 523.552 554.003 526.112 553.329 528.673C552.906 530.277 553.171 532.768 554.822 532.601C576.34 530.422 597.974 529.383 619.602 529.489C621.877 529.5 624.982 530.403 624.687 532.658C601.647 532.93 578.522 533.208 555.731 536.6C552.102 537.14 549.596 532.646 550.007 529C550.419 525.354 552.51 522.084 553.099 518.462C553.607 515.341 552.972 512.158 552.288 509.07C551.201 504.162 549.986 499.282 548.646 494.437C547.338 489.708 545.91 485.014 544.482 480.32C542.323 473.221 540.163 466.121 538.004 459.021C535.034 463.37 533.711 468.815 534.354 474.041C534.802 477.68 536.151 481.136 537.162 484.661C538.607 489.699 539.365 494.904 540.12 500.091C541.606 510.307 543.093 520.523 544.579 530.74C544.798 532.243 544.366 534.458 542.863 534.236C536.181 513.565 538.016 490.711 530.13 470.469C531.868 466.364 533.606 462.259 535.344 458.154ZM585.111 461.904C587.288 460.693 588.416 457.866 587.669 455.489C586.923 453.111 584.382 451.436 581.902 451.687C575.823 452.303 569.744 452.919 563.665 453.535C563.103 453.592 562.475 453.685 562.138 454.137C561.872 454.494 561.867 454.976 561.892 455.42C562.054 458.198 563.018 460.925 564.638 463.187C565.897 464.945 567.638 467.049 566.655 468.975C565.427 471.381 561.39 470.032 560.389 467.523C559.388 465.014 560.1 462.182 559.914 459.487C559.728 456.791 557.791 453.689 555.126 454.137C550.757 454.873 546.388 455.608 542.018 456.344C541.391 456.45 540.572 456.837 540.756 457.446C546.077 475.057 551.397 492.668 556.718 510.28C557.381 512.475 558.876 515.191 561.108 514.67C581.602 509.884 603.21 514.41 624.019 511.265C617.785 491.719 611.336 472.243 604.671 452.839C604.475 452.267 604.252 451.658 603.763 451.301C603.222 450.905 602.494 450.917 601.825 450.945C598.703 451.078 595.582 451.21 592.461 451.342C591.226 451.394 589.542 451.983 589.813 453.189C590.661 456.97 591.509 460.752 592.358 464.533C592.504 465.183 592.647 465.88 592.404 466.501C591.744 468.191 589.255 467.765 587.595 467.033C586.506 466.554 585.36 466.028 584.687 465.046C584.014 464.065 584.07 462.483 585.111 461.904ZM577.066 434.47C574.672 432.714 571.524 431.447 568.762 432.535C567.799 432.914 566.963 433.551 566.141 434.18C564.678 435.301 563.17 436.473 562.306 438.101C561.503 439.616 561.337 441.377 561.187 443.086C561.056 444.579 560.925 446.072 560.793 447.565C560.712 448.491 560.679 449.555 561.35 450.198C561.994 450.815 563.005 450.77 563.893 450.686C570.251 450.081 576.609 449.476 582.968 448.871C583.874 448.785 584.981 448.539 585.22 447.66C585.314 447.314 585.238 446.945 585.153 446.596C583.981 441.778 581.064 437.403 577.066 434.47M574.685 450.266C574.045 450.447 574.756 451.647 575.222 451.172C575.817 450.928 575.157 449.81 574.656 450.213L574.685 450.266Z" fill="#FFB61D"/>
<path fill-rule="evenodd" clip-rule="evenodd" d="M373.097 307.331C372.986 306.959 373.207 306.57 373.468 306.282C374.749 304.872 376.894 304.767 378.799 304.762C390.352 304.736 401.905 304.709 413.459 304.682C414.272 304.68 415.143 304.696 415.807 305.166C416.47 305.635 416.73 306.743 416.092 307.248C415.753 307.516 415.285 307.533 414.852 307.538C401.431 307.687 388.009 307.836 374.587 307.985C374.003 307.991 373.264 307.892 373.097 307.331Z" fill="#00160A"/>
<path fill-rule="evenodd" clip-rule="evenodd" d="M377.379 319.258C376.682 318.858 376.779 317.736 377.364 317.186C377.95 316.636 378.803 316.507 379.6 316.411C384.382 315.834 389.192 315.517 393.998 315.201C396.646 315.026 399.295 314.852 401.943 314.678C405.386 314.451 408.829 314.224 412.272 313.997C413.365 313.925 414.586 313.894 415.41 314.617C416.234 315.34 416.033 317.079 414.938 317.147C402.787 317.9 390.636 318.653 378.485 319.405C378.108 319.429 377.706 319.447 377.379 319.258L377.379 319.258Z" fill="#00160A"/>
<path fill-rule="evenodd" clip-rule="evenodd" d="M442.513 334.969C443.431 333.224 444.428 331.394 446.117 330.378C447.806 329.361 450.397 329.571 451.307 331.32C452.275 333.182 450.835 335.426 449.144 336.668C447.453 337.911 445.374 338.787 444.276 340.575C450.213 344.487 456.15 348.399 462.087 352.311C466.737 355.376 471.998 359.752 471.047 365.239C470.488 368.456 467.762 370.957 464.725 372.157C461.689 373.357 458.35 373.482 455.086 373.576C433.151 374.208 411.194 374.097 389.266 373.243C387.745 373.184 386.048 373.042 385.034 371.906C384.249 371.025 384.087 369.77 383.96 368.597C382.698 356.926 381.436 345.255 380.174 333.583C380.127 333.152 380.083 332.702 380.237 332.297C380.887 330.593 383.436 331.643 384.861 332.78C394.955 340.837 411.093 339.891 420.176 330.709C422.371 328.49 426.107 328.777 428.926 330.115C431.746 331.452 434.105 333.628 436.933 334.947C436.632 333.311 438.074 331.586 439.737 331.593C441.4 331.599 442.828 333.336 442.513 334.969ZM443.755 342.489C443.034 339.84 439.119 339.284 436.96 340.979C434.801 342.674 434.101 345.627 433.914 348.366C433.844 349.387 432.164 349.489 431.589 348.642C431.013 347.795 431.246 346.654 431.566 345.682C432.409 343.114 433.708 340.697 435.382 338.577C436.212 337.527 434.996 336.107 433.902 335.338C430.039 332.622 424.57 329.943 421.028 333.064C411.32 341.614 395.835 342.754 384.98 335.716C385.109 344.477 385.755 353.23 386.912 361.915C387.029 362.79 387.178 363.725 387.783 364.368C388.583 365.219 389.892 365.279 391.06 365.28C409.917 365.304 428.774 365.328 447.631 365.352C449.466 365.355 451.96 364.699 451.817 362.87C451.484 358.613 453.369 354.242 456.694 351.563C454.079 349.663 451.464 347.763 448.848 345.863C448.051 345.284 447.215 344.688 446.244 344.522C443.309 344.019 441.349 347.382 440.312 350.173C438.721 347.33 440.574 343.194 443.755 342.489ZM394.471 371.559C414.108 371.713 433.746 371.68 453.382 371.46C458.956 371.398 465.465 370.832 468.488 366.147C441.373 367.339 414.218 367.634 387.083 367.031C386.746 370.288 391.197 371.533 394.471 371.559M461.674 354.055C461.089 353.685 460.485 353.307 459.803 353.19C457.747 352.837 456.125 354.89 455.232 356.776C454.716 357.866 454.267 358.988 453.889 360.134C453.601 361.007 453.352 361.935 453.533 362.836C453.714 363.737 454.453 364.589 455.372 364.6C458.711 364.638 462.051 364.602 465.388 364.493C466.175 364.468 467.031 364.412 467.621 363.889C468.315 363.274 468.399 362.214 468.226 361.303C467.597 358.007 464.508 355.851 461.674 354.055ZM449.878 332.738C449.841 331.721 448.484 331.205 447.545 331.597C446.606 331.99 446.029 332.923 445.513 333.8C444.89 334.861 444.268 335.921 443.645 336.981C443.318 337.537 443.14 338.484 443.77 338.623C445.428 337.245 447.086 335.867 448.743 334.489C449.298 334.027 449.904 333.46 449.878 332.738ZM439.134 334.396C438.853 335.767 439.556 337.282 440.785 337.952C441.211 336.54 440.961 334.939 440.125 333.724C440.074 333.38 439.607 333.182 439.324 333.382C439.105 333.659 439.027 334.042 439.12 334.382L439.134 334.396Z" fill="#00160A"/>
<path fill-rule="evenodd" clip-rule="evenodd" d="M371.62 293.96C371.121 291.548 370.623 289.135 370.125 286.722C369.931 285.784 369.753 284.744 370.245 283.922C370.915 282.802 372.45 282.653 373.755 282.63C405.807 282.072 437.871 282.194 469.918 282.996C472.104 283.051 473.899 284.939 474.564 287.022C475.229 289.106 475.011 291.355 474.785 293.53C474.663 294.706 474.469 296.016 473.532 296.736C472.764 297.325 471.715 297.34 470.748 297.33C438.559 296.978 406.371 296.627 374.183 296.275C373.653 296.27 373.092 296.255 372.644 295.973C371.988 295.56 371.776 294.719 371.62 293.96ZM376.047 284.746C373.678 284.729 371.998 287.544 372.59 289.838C373.182 292.132 375.398 293.711 377.701 294.269C380.004 294.827 382.414 294.557 384.773 294.337C413.842 291.62 443.236 296.813 472.284 293.882C472.436 292.115 472.581 290.288 472.012 288.608C471.442 286.928 469.959 285.423 468.186 285.41C437.473 285.189 406.76 284.968 376.047 284.746Z" fill="#00160A"/>
<path fill-rule="evenodd" clip-rule="evenodd" d="M178.348 363.842C177.275 365.875 175.796 367.94 173.578 368.545C169.353 369.698 165.86 365.008 164.707 360.783C162.907 354.188 163.363 347 165.98 340.685C167.38 337.306 166.213 333.312 164.017 330.387C159.877 324.871 152.152 322.456 145.515 324.332C138.878 326.209 133.64 332.113 132.252 338.869C132.034 339.927 132.188 341.413 133.257 341.562C138.592 342.309 141.041 348.57 141.853 353.895C142.473 357.96 142.742 362.22 141.363 366.095C139.984 369.969 136.609 373.373 132.508 373.684C128.828 371.206 126.057 367.408 124.821 363.147C122.522 355.222 125.508 346.821 128.591 339.166C130.473 334.495 132.492 329.712 136.066 326.164C143.706 318.58 157.972 319.481 164.597 327.965C167.146 331.228 168.609 335.282 171.433 338.31C173.562 340.593 176.377 342.191 178.319 344.634C182.538 349.941 181.512 357.846 178.348 363.842ZM127.158 349.19C125.224 354.522 125.763 360.695 128.592 365.61C129.056 366.418 129.609 367.221 130.421 367.677C131.233 368.134 132.365 368.141 133.007 367.466C134.931 365.443 135.171 362.385 135.165 359.594C135.157 356.292 134.954 352.992 134.556 349.715C134.393 348.373 134.115 346.891 133.03 346.085C131.945 345.279 129.909 345.953 130.079 347.294C130.575 351.194 131.071 355.095 131.566 358.995C131.679 359.882 131.778 360.842 131.334 361.618C130.889 362.394 129.661 362.756 129.098 362.061C127.639 359.084 127.199 355.619 127.868 352.373C128.109 351.205 128.274 349.608 127.158 349.19M171.812 364.658C172.305 364.274 172.535 363.649 172.719 363.051C174.165 358.355 174.181 353.229 172.763 348.524C172.224 346.736 170.763 344.643 168.994 345.243C167.971 345.589 167.453 346.708 167.128 347.737C165.648 352.414 165.845 357.602 167.674 362.154C168.025 363.026 168.458 363.907 169.201 364.484C169.943 365.06 171.071 365.236 171.812 364.658ZM137.093 347.781C138.382 354.313 138.108 361.148 136.3 367.555C136.134 368.145 136.803 368.605 137.363 368.854C140.075 362.276 140.418 354.751 138.317 347.954C137.968 347.705 137.497 347.638 137.093 347.781ZM174.717 346.017C174.316 346.656 173.916 347.295 173.515 347.935C174.836 347.711 175.44 349.513 175.51 350.851C175.674 353.942 175.837 357.034 176.001 360.125C177.231 359.664 177.453 358.049 177.476 356.736C177.528 353.778 177.579 350.82 177.631 347.862C177.188 347.81 176.745 347.758 176.302 347.706C176.257 346.869 175.55 346.116 174.717 346.017Z" fill="#00160A"/>
<path fill-rule="evenodd" clip-rule="evenodd" d="M319.719 351.627C310.907 351.207 302.056 351.589 293.313 352.768C292.54 352.872 291.674 352.96 291.052 352.488C290.43 352.016 290.498 350.763 291.274 350.678C300.018 349.717 308.799 349.099 317.591 348.826C318.547 348.796 319.618 348.813 320.299 349.484C320.981 350.156 320.675 351.673 319.719 351.627Z" fill="#00160A"/>
<path fill-rule="evenodd" clip-rule="evenodd" d="M115.02 316.44C117.521 316.205 120.023 315.97 122.524 315.735C123.785 315.617 125.045 315.499 126.305 315.38C134.321 314.627 142.337 313.874 150.36 313.204C150.675 313.178 151.004 313.154 151.296 313.275C152.165 313.636 152.031 315.039 151.275 315.597C150.518 316.155 149.494 316.123 148.555 316.091C136.739 315.698 124.963 319.249 113.202 318.048C112.438 317.97 111.438 317.576 111.573 316.82C112.717 316.657 113.869 316.549 115.02 316.44Z" fill="#00160A"/>
<path fill-rule="evenodd" clip-rule="evenodd" d="M384.467 576.1C384.074 572.659 383.792 568.915 381.478 566.337C379.703 564.36 380.621 560.684 383.118 559.774C385.615 558.864 388.684 561.086 388.597 563.743C388.567 564.655 388.235 565.525 387.977 566.4C386.213 572.377 387.851 578.807 390.008 584.653C392.193 590.573 395.538 596.875 401.541 598.821C408.486 601.072 416.17 596.09 419.249 589.47C422.327 582.851 421.858 575.165 420.783 567.944C420.675 567.22 420.481 566.384 419.817 566.077C417.115 564.829 416.705 560.447 419.128 558.721C421.551 556.994 425.559 558.813 425.856 561.773C425.957 562.777 425.701 563.778 425.509 564.769C424.182 571.645 425.937 578.854 424.483 585.705C423.572 589.994 421.389 594.005 418.282 597.099C414.986 600.379 410.536 602.641 405.887 602.72C399.627 602.826 393.773 598.944 390.234 593.779C386.696 588.613 385.178 582.321 384.467 576.1Z" fill="#00160A"/>
<path fill-rule="evenodd" clip-rule="evenodd" d="M201.914 293.585C202.088 295.942 202.254 298.37 201.52 300.616C200.785 302.863 198.919 304.909 196.564 305.112C184.425 306.155 172.284 307.199 160.122 307.919C143.537 308.9 126.924 309.279 110.315 309.657C109.722 309.67 109.088 309.672 108.593 309.346C107.851 308.856 107.712 307.843 107.644 306.957C107.464 304.635 107.285 302.313 107.105 299.991C107.05 299.285 107.009 298.522 107.39 297.925C107.947 297.05 109.14 296.9 110.176 296.838C140.724 295.027 171.315 293.943 201.914 293.585ZM196.803 301.729C198.755 301.599 199.15 298.527 197.719 297.194C196.288 295.86 194.115 295.831 192.159 295.88C167.019 296.504 141.869 297.129 116.779 298.836C114.972 298.959 113.092 299.109 111.53 300.026C109.968 300.942 108.84 302.87 109.437 304.58C110.285 307.009 113.562 307.276 116.129 307.105C143.02 305.313 169.912 303.521 196.803 301.729Z" fill="#00160A"/>
<path fill-rule="evenodd" clip-rule="evenodd" d="M170.7 352.255C170.724 352.894 170.749 353.533 170.773 354.171C170.823 355.5 170.872 356.838 170.68 358.154C169.014 357.978 168.497 355.833 168.4 354.16C168.353 353.364 168.338 352.475 168.871 351.882C169.404 351.289 170.67 351.459 170.7 352.255L170.7 352.255Z" fill="#00160A"/>
<path fill-rule="evenodd" clip-rule="evenodd" d="M290.733 357.698C292.369 356.188 294.856 356.235 297.08 356.298C304.119 356.498 311.179 355.954 318.104 354.678C318.921 354.528 319.36 355.797 318.851 356.453C318.343 357.109 317.423 357.247 316.598 357.331C308.793 358.124 300.955 358.595 293.111 358.74C292.176 358.758 290.991 358.596 290.733 357.698Z" fill="#00160A"/>
<path fill-rule="evenodd" clip-rule="evenodd" d="M553.509 384.087C552.737 386.698 550.173 388.312 547.727 389.508C535.487 395.495 521.098 396.96 507.902 393.565C503.47 392.424 498.421 389.786 498.232 385.213C498.092 381.852 500.775 379.035 503.616 377.233C507.975 374.47 513.056 373.074 518.123 372.09C527.896 370.191 538.492 369.799 547.339 374.366C551.045 376.279 554.691 380.087 553.509 384.087M501.253 384.705C501.261 388.398 505.381 390.56 508.953 391.497C521.358 394.751 534.927 393.347 546.403 387.622C548.245 386.703 550.188 385.492 550.773 383.519C551.559 380.869 549.505 378.199 547.227 376.634C540.37 371.922 531.299 372.566 523.026 373.452C516.369 374.165 509.275 375.096 504.2 379.463C502.631 380.813 501.249 382.636 501.253 384.705L501.253 384.705Z" fill="#00160A"/>
<path fill-rule="evenodd" clip-rule="evenodd" d="M193.372 167.774C192.955 165.4 194.592 163.041 196.702 161.875C198.812 160.709 201.299 160.484 203.705 160.343C225.159 159.08 246.579 162.526 268.041 163.658C270.803 163.804 273.715 163.957 276.039 165.457C278.363 166.958 279.727 170.326 278.119 172.577C277.342 173.666 276.056 174.271 274.781 174.673C271.101 175.836 267.153 175.682 263.298 175.516C243.235 174.653 223.171 173.791 203.108 172.928C199.124 172.757 194.063 171.701 193.372 167.774M196.126 164.334C194.992 165.932 195.941 168.315 197.579 169.39C199.217 170.465 201.281 170.586 203.238 170.674C224.502 171.631 245.765 172.588 267.029 173.545C269.101 173.638 271.395 173.659 272.965 172.303C274.535 170.948 274.328 167.715 272.279 167.389C248.635 163.63 224.641 162.069 200.708 162.732C199.028 162.779 197.099 162.963 196.126 164.334" fill="#00160A"/>
<path fill-rule="evenodd" clip-rule="evenodd" d="M428.635 147.171C431.899 140.371 437.191 133.361 444.712 132.781C449.722 132.395 455.037 133.271 459.002 136.358C466.193 141.956 466.694 152.811 464.125 161.555C461.096 171.861 454.336 181.406 444.639 186.028C442.327 187.131 439.811 187.955 437.251 187.855C430.448 187.588 425.494 180.904 424.03 174.255C422.022 165.143 424.598 155.583 428.635 147.171M437.096 185.365C442.124 186.05 446.862 182.847 450.41 179.218C457.059 172.416 461.523 163.51 462.994 154.112C463.417 151.404 463.593 148.594 462.856 145.954C461.407 140.76 456.484 137.007 451.202 135.927C446.122 134.889 440.539 136.128 436.623 139.527C434.741 141.16 433.28 143.223 432.004 145.363C427.841 152.345 425.475 160.469 425.765 168.592C425.896 172.262 426.591 175.992 428.449 179.16C430.307 182.327 433.457 184.87 437.096 185.365Z" fill="#FFB61D"/>
<path fill-rule="evenodd" clip-rule="evenodd" d="M263.726 435.788C264.394 435.753 265.112 435.729 265.678 436.087C266.377 436.529 266.633 437.409 266.834 438.211C267.276 439.969 267.719 441.797 267.364 443.574C267.009 445.35 265.607 447.057 263.797 447.136C259.18 447.338 254.563 447.539 249.945 447.741C248.135 447.82 246.013 448.079 245.113 449.652C244.504 450.718 244.685 452.042 244.885 453.254C245.451 456.689 247.051 461.031 250.53 460.905C252.844 460.821 254.907 462.578 255.903 464.668C256.899 466.759 257.048 469.138 257.18 471.45C257.305 473.626 256.75 476.6 254.571 476.654C252.813 476.698 252.328 479.073 252.384 480.83C252.772 493.051 253.161 505.271 253.549 517.491C253.611 519.46 251.088 520.288 249.128 520.486C232.703 522.144 216.106 522.1 199.69 520.356C199.101 520.293 198.349 520.063 198.336 519.471C198.032 505.663 197.728 491.855 197.425 478.047C197.407 477.242 197.012 476.129 196.236 476.341C193.789 477.01 191.329 474.74 190.823 472.255C190.316 469.769 191.185 467.233 192.041 464.845C192.437 463.742 192.881 462.572 193.828 461.88C195.85 460.404 199.588 461.455 200.493 459.121C200.643 458.735 200.672 458.312 200.657 457.898C200.531 454.292 197.173 451.447 193.636 450.734C190.099 450.021 186.453 450.959 183.009 452.033C182.219 449.054 182.017 445.921 182.417 442.866C182.511 442.145 182.658 441.387 183.142 440.845C183.833 440.071 184.984 439.964 186.019 439.909C211.921 438.535 237.824 437.162 263.726 435.788ZM194.665 463.764C194.167 464.342 194.057 465.149 193.967 465.907C193.734 467.882 193.5 469.858 193.266 471.833C193.217 472.249 193.171 472.688 193.338 473.071C193.697 473.892 194.781 474.034 195.677 474.056C200.432 474.174 205.187 474.292 209.942 474.411C210.744 474.43 211.585 474.442 212.297 474.073C213.443 473.479 213.913 471.866 213.267 470.75C213.849 470.69 214.431 470.631 215.013 470.571C214.756 472.294 216.512 473.736 218.235 473.99C219.958 474.243 221.69 473.717 223.427 473.579C227.067 473.292 230.703 474.72 234.33 474.291C234.711 474.246 235.119 474.167 235.386 473.89C235.735 473.529 235.728 472.964 235.7 472.462C235.562 470.054 235.425 467.647 235.287 465.239C235.244 464.481 235.179 463.665 234.692 463.083C233.996 462.251 232.75 462.225 231.666 462.267C226.431 462.47 221.196 462.672 215.961 462.875C215.596 462.889 215.191 462.92 214.938 463.184C214.654 463.479 214.674 463.944 214.712 464.352C214.888 466.225 215.064 468.099 215.24 469.972C214.545 470.04 213.864 470.243 213.246 470.567C213.092 469.091 212.937 467.615 212.782 466.138C212.642 464.792 212.114 463.068 210.761 463.05C206.441 462.992 202.12 462.935 197.799 462.877C196.676 462.862 195.398 462.913 194.665 463.764ZM219.558 478.288C219.486 477.294 219.056 475.978 218.064 476.085C211.904 476.747 205.668 476.709 199.515 475.972C199.667 489.378 199.917 502.783 200.265 516.186C200.309 517.911 202.487 518.601 204.203 518.777C209.302 519.3 214.436 519.478 219.56 519.311C219.98 519.297 220.434 519.268 220.754 518.996C221.175 518.638 221.202 518.01 221.196 517.457C221.05 504.388 220.503 491.324 219.558 478.288ZM250.368 477.549C250.2 477.26 249.816 477.2 249.483 477.172C244.183 476.723 238.856 476.597 233.54 476.795C233.059 476.813 232.543 476.845 232.162 477.14C231.582 477.588 231.546 478.434 231.563 479.167C231.856 492.547 232.149 505.927 232.442 519.308C238.293 519.873 244.251 519.32 249.899 517.688C250.25 517.587 250.623 517.466 250.85 517.18C251.095 516.87 251.111 516.444 251.117 516.05C251.227 507.441 251.005 498.832 250.783 490.226C250.678 486.171 250.573 482.116 250.469 478.062C250.464 477.886 250.457 477.701 250.368 477.549ZM184.651 443.63C183.635 445.227 184.727 447.483 186.397 448.375C188.067 449.268 190.069 449.181 191.959 449.072C203.396 448.409 214.834 447.746 226.271 447.084C237.178 446.452 248.086 445.819 258.976 444.933C260.571 444.803 262.246 444.64 263.564 443.732C264.882 442.824 265.648 440.906 264.764 439.572C263.877 438.234 261.97 438.172 260.367 438.255C236.602 439.481 212.837 440.707 189.072 441.932C187.43 442.017 185.533 442.243 184.651 443.63M230.365 518.996C229.562 505.934 229.403 492.833 229.889 479.756C229.917 479.005 229.941 478.223 229.641 477.534C228.766 475.521 225.95 475.527 223.781 475.862C222.789 476.016 221.523 476.49 221.597 477.491C222.527 490 223.458 502.529 223.249 515.071C223.221 516.731 224.172 518.372 225.626 519.174C227.081 519.976 228.976 519.905 230.365 518.996ZM254.91 470.776C254.627 469.05 254.332 467.286 253.49 465.753C252.649 464.22 251.142 462.936 249.395 462.849C246.076 462.683 242.758 462.518 239.439 462.353C238.575 462.31 237.381 462.57 237.423 463.434C237.549 466.06 237.676 468.687 237.802 471.313C237.858 472.459 238.071 473.843 239.134 474.278C239.476 474.418 239.856 474.429 240.226 474.437C244.552 474.536 248.879 474.635 253.206 474.734C254.032 474.753 254.724 474.027 254.95 473.232C255.175 472.438 255.043 471.591 254.91 470.776ZM233.96 457.834C233.527 456.011 233.076 454.144 232.039 452.583C231.003 451.021 229.243 449.801 227.374 449.939C224.493 450.15 221.612 450.362 218.731 450.574C216.936 450.706 214.904 450.964 213.852 452.424C212.579 454.19 213.452 456.654 213.108 458.804C212.987 459.559 213.577 460.282 214.283 460.575C214.99 460.869 215.783 460.834 216.547 460.795C221.704 460.53 226.861 460.264 232.019 459.999C232.776 459.96 233.684 459.822 233.986 459.126C234.161 458.724 234.062 458.261 233.96 457.834ZM242.998 454.531C242.017 453.187 242.041 451.196 243.055 449.876C241.247 448.753 238.715 448.961 237.115 450.363C235.514 451.765 234.975 454.248 235.85 456.187C236.158 456.871 235.982 457.681 236.199 458.399C236.507 459.419 237.574 460.06 238.632 460.191C239.69 460.322 240.75 460.044 241.78 459.769C243.13 459.408 244.774 458.686 244.761 457.288C244.75 456.173 243.656 455.432 242.998 454.531ZM210.769 459.317C211.368 457.358 210.562 455.124 209.025 453.77C207.487 452.417 205.333 451.889 203.293 452.073C202.473 452.146 201.618 452.349 201.025 452.92C200.431 453.491 200.219 454.518 200.754 455.143C201.149 455.606 201.825 455.741 202.238 456.187C202.869 456.867 202.656 457.955 202.945 458.837C203.598 460.829 206.303 461.017 208.39 460.826C209.105 460.761 209.894 460.66 210.364 460.118C210.562 459.89 210.681 459.605 210.769 459.317ZM211.107 452.726C211.591 452.258 211.679 451.435 211.305 450.875C210.471 450.627 209.539 451.123 209.101 451.874C209.427 452.62 210.343 453.051 211.126 452.827M234.891 450.646C235.013 450.319 234.942 449.928 234.712 449.665C233.921 449.415 233 449.639 232.412 450.224C233.017 450.91 234.117 451.095 234.913 450.645L234.891 450.646Z" fill="#00160A"/>
<path fill-rule="evenodd" clip-rule="evenodd" d="M553.736 395.121C528.381 405.036 503.025 414.951 477.67 424.866C466.763 429.131 454.145 435.532 452.975 447.185C467.792 435.786 486.094 428.983 504.759 427.938C491.864 444.184 475.583 457.729 457.261 467.451C440.807 476.182 419.976 485.494 418.565 504.067C436.235 483.025 463.404 470.286 490.881 470.159C473.302 495.906 445.114 514.169 414.431 519.69C415.484 527.602 416.537 535.514 417.59 543.426C428.015 543.056 438.504 544.548 448.413 547.809C455.47 578.126 462.527 608.442 469.584 638.759C471.32 646.22 472.849 654.792 468.281 660.941C463.749 667.04 455.19 668.09 447.61 668.628C417.737 670.752 387.863 672.876 357.989 674.999C354.413 658.795 350.836 642.591 347.259 626.386C296.869 631.065 246.478 635.744 196.088 640.423C185.476 641.409 174.253 642.292 164.651 637.669C129.822 620.901 87.5899 653.357 50.8033 641.483C83.1242 640.874 115.345 635.236 145.953 624.835C157.053 621.063 170.344 610.73 164.544 600.542C136.16 620.347 99.7395 628.254 65.6976 622.001C67.6964 588.942 66.411 555.685 61.8665 522.878C86.0885 519.413 109.96 513.499 132.998 505.256C139.406 502.963 145.999 500.324 150.562 495.274C155.126 490.224 156.971 482.066 152.961 476.566C117.92 495.238 77.4621 503.595 37.8913 500.334C39.9561 545.108 42.0209 589.883 44.0858 634.657C38.2367 589.915 35.1348 544.814 34.8033 499.692C55.1727 497.886 75.5421 496.08 95.9114 494.273C92.6362 479.734 89.3403 464.862 91.0228 450.053C92.7053 435.244 100.327 420.248 113.724 413.717C103.589 392.1 88.271 372.934 69.4201 358.283C47.3214 341.107 18.9094 328.157 8.81776 302.051C2.14528 284.79 5.4182 264.713 14.6573 248.678C23.8965 232.644 38.5367 220.292 54.4489 210.844C32.5416 205.213 15.9479 183.375 16.3919 160.76C16.8358 138.145 34.2738 116.975 56.3852 112.209C45.9602 99.7853 29.5446 94.0912 17.5542 83.1712C3.58612 70.4503 -3.43293 49.93 1.65506 31.7355C6.74306 13.541 24.6573 -0.774139 43.5327 0.0324868C59.0371 0.695058 72.6813 10.5013 83.5038 21.6233C100.288 38.8722 112.771 60.2757 119.52 83.3776C124.018 98.7758 140.504 106.609 154.427 114.578C168.35 122.547 182.808 136.428 178.885 151.982C173.699 130.697 156.285 112.856 135.132 107.155C124.11 104.185 120.093 91.0686 116.547 80.2178C109.648 59.1024 97.87 39.5976 82.3956 23.6603C70.7663 11.6831 55.5617 1.23166 38.8919 2.13147C21.7313 3.05778 6.60375 17.017 2.68041 33.7488C-1.24292 50.4805 5.33507 68.8142 17.8566 80.5852C30.6105 92.5748 48.8564 98.4477 59.1387 112.614C36.8378 117.146 19.2068 138.608 19.0897 161.364C18.9725 184.121 36.3817 205.763 58.6348 210.524C42.9526 219.704 28.2784 231.365 18.603 246.746C8.92764 262.128 4.78005 281.65 10.5693 298.874C23.9595 338.714 79.7709 348.223 99.4666 385.352C104.801 367.832 96.9816 349.41 92.9627 331.541C88.9438 313.673 91.2155 290.727 107.875 283.118C103.006 259.651 98.1372 236.185 93.2684 212.718C89.6404 195.232 87.8201 173.078 102.863 163.452C92.2639 160.165 82.8572 153.163 76.6664 143.954C83.3518 154.187 96.2281 159.993 108.324 158.229C93.0385 125.095 76.0906 92.7275 57.5648 61.2901C77.5266 91.3891 95.1933 123.01 110.361 155.787C180.515 153.889 250.777 156.05 320.682 162.257C329.963 163.081 339.952 164.28 346.812 170.585C356.672 179.645 371.475 182.95 384.251 178.943C388.316 189.02 391.307 200.339 387.851 210.641C384.396 220.943 372.156 228.806 362.372 224.08C364.926 237.219 367.48 250.359 370.034 263.498C395.05 263.799 420.063 264.31 445.071 265.031C458.325 265.413 472.178 266.016 483.698 272.582C495.217 279.149 503.346 293.694 498.215 305.921C501.488 295.817 504.76 285.712 508.033 275.608C519.568 293.918 525.234 315.865 524.002 337.47C527.998 331.39 531.994 325.31 535.99 319.23C521.793 296.886 519.986 267.188 531.368 243.287C542.532 261.775 548.82 283.177 549.431 304.765C553.594 265.858 581.16 230.389 617.834 216.748C611.471 231.409 605.109 246.071 598.746 260.732C593.298 273.285 586.378 287.208 573.288 291.196C564.653 293.826 552.15 293.667 550.584 302.557C575.385 296.053 601.783 295.731 626.735 301.628C607.508 324.745 570.455 330.437 545.175 314.157C533.249 327.458 522.916 342.186 514.467 357.927C528.819 340.09 551.154 328.936 574.035 328.178C561.742 342.707 547.876 355.904 532.758 367.465C540.782 368.236 549.458 369.293 555.278 374.87C561.099 380.447 561.244 392.185 553.736 395.121ZM219.045 248.702C225.695 248.625 233.143 248.862 237.785 253.624C241.327 257.257 242.276 262.616 243.048 267.63C246.579 290.562 249.884 313.528 252.964 336.524C253.737 342.292 248.901 347.615 243.376 349.444C237.851 351.273 231.845 350.47 226.083 349.648C230.887 345.502 238.997 348.474 244.167 344.795C248.804 341.496 248.777 334.721 248.222 329.057C246.14 307.822 243.306 286.66 239.725 265.626C239.092 261.908 238.317 257.952 235.683 255.253C232.176 251.658 226.571 251.418 221.549 251.412C200.932 251.386 180.315 251.361 159.698 251.335C156.145 251.331 152.406 251.373 149.321 253.136C140.444 258.21 143.717 271.611 148.129 280.835C160.631 278.301 173.405 277.112 186.159 277.298C197.458 277.462 211.548 281.131 213.454 292.269C217.64 316.74 221.825 341.21 226.011 365.68C228.206 378.511 229.416 394.099 219.162 402.118C214.039 406.125 207.239 407.08 200.786 407.896C184.92 409.902 169.053 411.908 153.187 413.914C159.795 471.775 166.403 529.637 173.012 587.498C173.749 593.952 175.098 601.371 180.773 604.532C184.13 606.402 188.202 606.249 192.039 606.04C242.594 603.283 293.1 599.632 343.526 595.089C341.509 590.493 341.469 585.069 343.418 580.443C348.526 610.344 353.633 640.245 358.741 670.146C367.683 663.982 366.308 650.602 363.934 640.004C357.923 613.171 351.913 586.338 345.902 559.505C343.469 563.969 341.035 568.433 338.602 572.897C337.407 567.324 340.751 561.557 345.39 558.244C350.028 554.93 355.745 553.571 361.319 552.376C378.455 548.702 395.776 545.896 413.196 543.972C408.134 508.262 403.072 472.553 398.009 436.843C366.887 445.391 333.929 442.701 301.772 439.944C292.248 439.128 280.144 435.922 279.235 426.406C276.952 402.484 274.669 378.562 272.386 354.64C272.088 351.521 270.281 347.321 267.306 348.303C259.996 350.717 255.648 340.302 255.05 332.626C253.173 308.553 251.296 284.479 249.419 260.405C249.173 257.248 249.109 253.604 251.463 251.486C253.112 250.003 255.486 249.731 257.694 249.53C273.446 248.089 289.198 246.649 304.951 245.209C313.946 244.386 324.163 243.961 330.709 250.186C335.329 254.579 336.879 261.241 337.854 267.541C339.651 279.153 340.246 290.95 339.627 302.683C338.378 291.214 337.13 279.745 335.882 268.276C335.32 263.115 334.634 257.643 331.374 253.604C325.81 246.709 315.458 246.825 306.628 247.551C290.854 248.849 275.081 250.147 259.307 251.445C257.183 251.62 254.881 251.871 253.337 253.34C251.328 255.252 251.385 258.416 251.586 261.181C253.276 284.447 254.966 307.712 256.656 330.978C256.975 335.369 257.409 340.063 260.185 343.48C262.961 346.898 268.984 347.971 271.578 344.413C268.025 336.601 272.94 327.035 280.216 322.482C287.492 317.929 296.421 317.128 304.977 316.445C319.732 315.268 334.487 314.091 349.243 312.914C348.232 282.373 344.938 251.909 339.399 221.858C334.295 220.431 329.648 217.414 326.267 213.334C323.736 219.852 316.199 223.995 309.34 222.637C302.481 221.279 297.091 214.577 297.235 207.586C296.421 215.631 289.413 222.609 281.364 223.387C273.316 224.166 265.1 218.66 262.76 210.92C258.906 215.218 253.905 218.922 248.155 219.446C242.406 219.969 236.046 216.338 235.111 210.641C227.56 220.437 210.011 219.443 203.614 208.857C197.035 219.715 178.304 219.448 172.037 208.407C169.223 218.615 153.513 219.431 145.973 211.998C138.432 204.565 136.964 193.115 135.915 182.579C123.468 194.572 121.222 213.838 123.585 230.96C125.947 248.083 132.103 264.577 133.597 281.797C137.007 282.654 140.747 282.113 143.774 280.324C140.504 270.443 138.354 257.168 147.23 251.733C150.79 249.553 155.196 249.442 159.37 249.393C179.262 249.163 199.153 248.933 219.045 248.702ZM416.097 414.988C442.19 413.692 469.107 417.093 493.904 408.87C497.741 407.597 501.672 405.92 504.144 402.721C497.81 399.81 491.083 394.791 491.238 387.821C491.34 383.244 494.512 379.288 498.085 376.426C501.836 373.421 506.203 371.19 510.836 369.911C511.211 368.764 509.195 368.516 508.196 369.193C507.198 369.871 505.682 370.709 505.018 369.702C504.839 369.431 504.803 369.094 504.771 368.772C502.282 343.444 498.594 318.235 493.723 293.255C492.259 285.745 490.083 277.379 483.463 273.541C479.889 271.468 475.605 271.12 471.483 270.835C440.455 268.688 409.369 267.374 378.27 266.892C370.921 266.779 362.699 267.052 357.546 272.294C353.638 276.271 352.518 282.177 352.104 287.738C350.823 304.956 354.51 322.096 356.909 339.194C359.782 359.677 360.816 380.366 362.712 400.962C362.964 403.703 363.27 406.559 364.752 408.878C367.294 412.853 372.454 414.1 377.127 414.755C384.03 415.723 391.011 416.132 397.98 415.978C404.027 415.844 410.056 415.288 416.097 414.988ZM201.954 282.128C193.121 278.245 183.004 279.285 173.419 280.398C158.921 282.081 144.423 283.764 129.925 285.447C122.957 286.256 115.982 287.066 109.088 288.366C107.426 288.68 105.759 289.025 104.191 289.658C98.0464 292.142 94.3831 298.767 93.5308 305.34C92.6784 311.912 94.1392 318.538 95.5396 325.016C99.8919 345.148 103.752 365.468 104.799 386.039C105.006 390.111 105.11 394.237 106.23 398.158C107.349 402.079 109.634 405.851 113.208 407.815C115.956 409.326 119.186 409.639 122.316 409.845C151.004 411.73 179.677 407.104 208.055 402.493C212.093 401.837 216.341 401.088 219.488 398.476C224.349 394.441 225.076 387.342 225.041 381.024C224.976 369.357 223.564 357.698 220.84 346.352C217.655 333.083 212.653 320.03 212.521 306.385C212.462 300.366 213.252 293.881 210.112 288.746C208.257 285.712 205.21 283.559 201.954 282.128ZM65.4398 534.802C69.2964 562.512 70.5921 590.577 69.305 618.524C69.2372 619.998 71.0272 620.748 72.4757 621.025C91.0274 624.571 110.133 620.027 128.135 614.311C138.368 611.062 148.609 607.359 157.46 601.28C161.508 598.499 165.605 594.309 164.848 589.456C159.984 558.278 157.309 526.76 156.849 495.208C140.469 508.007 119.683 513.438 99.5376 518.563C89.9895 520.992 80.3119 523.437 70.46 523.355C68.0785 523.335 66.101 525.427 65.4355 527.714C64.7699 530.001 65.1115 532.443 65.4398 534.802ZM441.946 548.809C411.263 545.821 379.964 549.33 350.705 559.037C352.461 572.402 354.862 585.681 357.895 598.815C359.109 604.074 360.425 609.309 361.741 614.544C364.303 624.739 366.865 634.933 369.427 645.128C369.784 646.547 370.231 648.098 371.454 648.901C372.545 649.617 373.958 649.535 375.26 649.427C405.556 646.9 435.836 644.163 466.095 641.215C459.48 611.728 452.865 582.242 446.25 552.755C445.996 551.622 445.69 550.401 444.789 549.669C444.008 549.036 442.946 548.906 441.946 548.809ZM396.717 419.369C390.04 419.709 383.264 420.041 376.745 418.56C370.226 417.079 363.882 413.526 360.534 407.739C358.613 409.951 354.793 410.117 352.687 408.08C350.581 406.043 350.619 402.22 352.765 400.225C344.284 400.302 335.803 400.378 327.321 400.455C331.197 402.738 330.879 409.47 326.872 411.515C322.865 413.56 317.319 410.106 317.226 405.608C317.185 403.59 318.423 401.323 320.434 401.142C319.6 399.713 317.435 400.559 315.788 400.403C313.306 400.168 311.95 397.464 311.079 395.128C307.548 385.654 304.335 376.065 301.123 366.479C303.373 370.16 308.438 371.816 312.428 370.175C313.837 369.595 313.88 367.568 313.28 366.167C312.232 363.721 309.844 361.835 307.191 361.627C304.538 361.419 301.777 363.04 300.88 365.545C299.55 364.551 300.117 362.252 301.512 361.351C302.907 360.451 304.694 360.53 306.351 360.63C321.994 361.575 337.695 361.56 353.336 360.585C354.048 360.541 354.833 360.461 355.318 359.939C355.867 359.348 355.814 358.436 355.727 357.634C355.129 352.132 354.531 346.63 353.933 341.128C353.867 340.518 353.773 339.851 353.317 339.44C352.815 338.987 352.058 339.008 351.384 339.056C331.777 340.453 312.221 342.564 292.768 345.382C290.697 345.682 288.771 343.944 288.117 341.956C287.464 339.969 287.766 337.809 288.075 335.739C288.183 335.013 288.321 334.227 288.859 333.727C289.354 333.267 290.072 333.159 290.743 333.073C310.982 330.49 331.353 328.94 351.75 328.431C351.255 330.446 348.627 330.88 346.552 330.917C327.622 331.253 308.713 332.771 289.971 335.458C288.475 338.017 290.526 341.464 293.288 342.54C296.051 343.616 299.145 343.041 302.059 342.493C318.116 339.471 334.407 337.69 350.739 337.171C353.07 337.097 353.349 333.742 352.859 331.461C351.721 326.164 350.583 320.867 349.445 315.571C338.135 317.712 326.582 318.567 315.081 318.113C308.275 317.844 301.506 319.033 294.798 320.218C289.098 321.225 283.023 322.418 278.904 326.485C274.089 331.238 273.226 338.671 273.518 345.431C273.998 356.521 276.812 367.369 278.201 378.382C279.899 391.839 279.462 405.479 280.765 418.979C281.116 422.616 281.617 426.321 283.248 429.591C284.878 432.861 287.843 435.668 291.457 436.207C321.154 440.635 351.435 441.138 381.263 437.699C384.018 437.381 386.798 437.023 389.399 436.061C393.504 434.542 397.024 431.497 399.119 427.654C399.959 426.111 400.587 424.347 400.28 422.617C399.974 420.887 398.471 419.28 396.717 419.369ZM159.297 495.235C162.404 529.428 165.512 563.621 168.62 597.814C169.179 603.96 169.717 610.309 167.796 616.173C165.875 622.038 160.822 627.339 154.654 627.541C158.275 632.837 164.524 635.866 170.844 636.975C177.163 638.084 183.643 637.497 190.031 636.906C242.673 632.043 295.314 627.179 347.955 622.316C346.825 615.737 345.695 609.159 344.565 602.581C344.312 601.105 343.587 599.232 342.093 599.344C305.899 602.041 269.705 604.738 233.511 607.435C218.649 608.543 203.713 609.651 188.859 608.435C181.342 607.821 172.059 604.834 171.318 597.329C165.384 537.282 158.515 477.327 150.713 417.494C150.593 416.574 150.444 415.59 149.814 414.907C148.974 413.996 147.584 413.927 146.345 413.921C138.944 413.883 131.543 413.845 124.142 413.807C126.303 426.069 129.109 438.217 132.544 450.185C133.179 452.397 134.235 454.979 136.501 455.377C144.639 456.806 151.062 463.5 154.41 471.054C157.758 478.608 158.549 487.007 159.297 495.235ZM130.861 282.398C124.508 250.178 119.134 217.766 114.746 185.22C114.498 183.379 114.258 181.471 114.8 179.694C115.916 176.032 119.921 174.114 123.646 173.23C130.928 171.503 138.533 172.079 145.997 172.629C214.237 177.661 282.7 179.674 351.118 178.662C348.397 173.142 342.924 169.378 337.104 167.382C331.283 165.386 325.063 164.942 318.924 164.518C258.698 160.356 198.381 156.456 138.015 157.183C130.63 157.272 123.158 157.442 116.027 159.365C108.896 161.288 102.034 165.161 97.9202 171.295C91.4372 180.961 93.0052 193.73 95.0118 205.194C99.711 232.042 105.428 258.712 112.146 285.126C118.385 284.217 124.623 283.308 130.861 282.398ZM277.795 219.425C281.056 219.459 284.445 219.276 287.331 217.757C292.413 215.082 294.669 208.918 295.005 203.185C295.341 197.451 294.209 191.705 294.573 185.973C294.657 184.667 295.386 182.935 296.654 183.263C297.572 189.862 298.489 196.46 299.407 203.058C299.914 206.701 300.441 210.412 302.037 213.726C303.633 217.039 306.502 219.952 310.114 220.646C312.189 221.044 314.355 220.687 316.332 219.944C321.066 218.164 325.033 213.634 324.853 208.58C324.605 201.602 324.356 194.623 324.108 187.645C324.01 184.885 322.983 181.206 320.225 181.351C301.832 182.314 283.385 182.229 265.003 181.096C263.663 181.013 263.309 182.912 263.451 184.248C264.187 191.169 264.922 198.091 265.658 205.012C266.214 210.238 267.4 216.38 272.195 218.531C273.932 219.31 275.89 219.405 277.795 219.425ZM372.126 653.745C371.245 654.362 370.663 655.312 370.127 656.245C367.337 661.101 365.096 666.271 363.458 671.626C395.653 669.377 427.822 666.763 459.958 663.786C461.166 663.674 462.476 663.516 463.343 662.667C463.905 662.116 464.194 661.351 464.466 660.612C465.669 657.344 466.871 654.077 468.074 650.809C468.66 649.219 469.18 647.241 468.035 645.991C467.084 644.953 465.467 644.986 464.064 645.098C434.682 647.452 405.315 649.987 375.965 652.703C374.629 652.826 373.225 652.974 372.126 653.745ZM428.879 455.39C428.009 445.232 426.235 433.832 417.946 427.898C414.711 436.805 411.446 445.847 410.706 455.295C409.966 464.743 412.054 474.812 418.391 481.858C419.282 482.848 420.272 483.809 420.744 485.054C421.216 486.299 420.977 487.943 419.821 488.604C411.206 481.108 407.641 469.087 407.842 457.67C408.044 446.254 411.543 435.184 415.01 424.305C415.772 421.915 413.593 419.4 411.147 418.843C408.701 418.286 406.175 419.103 403.8 419.911C403.338 420.068 403.134 420.596 402.988 421.062C401.345 426.295 399.688 431.844 400.96 437.179C406.441 460.168 405.733 484.295 411.312 507.26C411.518 508.108 411.741 508.974 412.235 509.693C415.935 502.458 419.635 495.224 423.335 487.989C425.074 484.59 426.822 481.166 427.908 477.505C430.018 470.387 429.513 462.787 428.879 455.39ZM559.768 288.524C560.483 289.114 561.442 289.3 562.363 289.403C572.826 290.573 582.7 283.451 588.494 274.66C594.288 265.87 597.025 255.484 600.824 245.665C604.389 236.449 608.948 227.619 614.398 219.376C603.487 229.614 590.055 236.783 578.666 246.487C567.277 256.191 557.585 269.801 558.388 284.741C558.463 286.122 558.701 287.644 559.768 288.524ZM140.716 189.517C142.203 196.037 141.588 203.282 145.2 208.91C148.702 214.365 156.089 216.965 162.236 214.906C168.383 212.847 172.713 206.321 172.221 199.857C172.109 198.388 171.778 196.946 171.447 195.51C170.152 189.885 168.857 184.26 167.562 178.635C167.433 178.075 167.289 177.486 166.892 177.071C166.323 176.476 165.412 176.407 164.589 176.375C156.677 176.073 148.765 175.77 140.852 175.467C140.091 175.438 139.256 175.432 138.664 175.911C137.915 176.519 137.872 177.634 137.97 178.593C138.349 182.333 139.88 185.851 140.716 189.517ZM354.897 195.598C355.086 204.604 360.953 212.435 367.141 218.981C367.745 219.62 368.365 220.262 369.12 220.714C370.341 221.444 371.827 221.616 373.244 221.495C378.024 221.084 382.113 217.469 384.131 213.116C386.148 208.763 386.376 203.784 385.941 199.006C385.507 194.228 384.449 189.522 384.023 184.744C383.937 183.785 383.585 182.534 382.623 182.538C374.164 182.57 365.705 182.602 357.246 182.635C356.164 182.639 355.017 182.661 354.103 183.24C353.189 183.819 352.679 185.172 353.357 186.015C355.428 188.592 354.827 192.293 354.897 195.598ZM483.533 474.173C460.357 473.765 439.111 487.504 422.901 504.072C420.169 506.865 417.501 509.795 415.682 513.253C415.36 513.865 415.106 514.717 415.634 515.164C415.914 515.402 416.316 515.416 416.684 515.415C430.167 515.367 443.134 509.672 454.089 501.811C465.044 493.95 474.274 483.974 483.533 474.173ZM196.761 213.271C200.072 211.365 202.203 207.57 202.106 203.751C202.057 201.814 201.485 199.935 201.025 198.053C199.84 193.21 199.38 188.191 199.663 183.214C199.724 182.154 199.814 181.065 199.496 180.052C199.177 179.039 198.332 178.108 197.271 178.05C188.514 177.572 179.756 177.093 170.998 176.615C170.683 176.598 170.339 176.589 170.085 176.775C169.69 177.064 169.713 177.651 169.786 178.134C170.863 185.261 174.312 191.974 174.533 199.179C174.615 201.829 174.26 204.546 175.003 207.092C175.953 210.353 178.669 212.927 181.82 214.195C184.97 215.464 188.505 215.536 191.848 214.933C193.558 214.625 195.255 214.137 196.761 213.271ZM547.196 310.84C553.539 312.629 559.147 316.37 565.3 318.73C578.941 323.962 595.178 321.778 606.951 313.127C612.007 309.412 617.062 305.697 622.117 301.982C615.955 303.441 609.581 303.999 603.259 303.635C592.695 303.026 582.263 299.862 571.712 300.655C562.736 301.329 554.007 304.955 547.196 310.84ZM366.073 262.03C364.826 255.124 363.58 248.218 362.333 241.312C360.662 232.056 358.991 222.801 357.32 213.545C357.202 212.888 357.058 212.184 356.572 211.727C356.085 211.27 355.136 211.269 354.871 211.881C353.202 215.733 349.785 218.786 345.771 220.013C343.335 220.757 343.127 224.08 343.41 226.611C345.407 244.469 347.772 262.285 350.501 280.046C351.295 272.782 357.52 266.474 364.773 265.583C366.184 265.41 366.326 263.429 366.073 262.03ZM232.818 205.859C232.043 198.414 231.066 190.99 229.887 183.598C229.644 182.074 228.995 180.174 227.453 180.106C219.482 179.756 211.51 179.407 203.539 179.057C203.255 179.045 202.955 179.035 202.703 179.169C202.06 179.51 202.165 180.448 202.355 181.151C204.193 187.977 205.169 195.034 205.251 202.102C205.271 203.841 205.251 205.647 205.979 207.227C207.051 209.552 209.49 210.886 211.808 211.972C215.847 213.864 220.264 215.528 224.672 214.841C229.08 214.154 233.28 210.296 232.818 205.859ZM236.265 205.901C237.069 209.796 238.543 214.327 242.359 215.447C245.58 216.392 249.062 216.653 252.293 215.742C255.523 214.831 258.469 212.662 259.915 209.633C260.944 207.477 261.176 205.036 261.31 202.651C261.677 196.117 261.425 189.547 260.557 183.06C260.51 182.713 260.459 182.356 260.283 182.052C259.818 181.247 258.722 181.134 257.792 181.114C249.675 180.937 241.558 180.76 233.441 180.583C232.778 180.569 231.852 181.258 232.413 181.612C233.321 189.762 234.607 197.87 236.265 205.901ZM509.01 286.515C502.669 300.851 500.802 317.127 503.731 332.526C504.901 338.678 507.202 345.206 512.527 348.501C514.094 349.471 516.706 349.757 517.286 348.008C524.022 327.685 520.879 304.333 509.01 286.515ZM98.0168 466.504C100.707 468.35 103.739 469.695 106.912 470.451C110.923 471.407 115.087 471.418 119.208 471.517C128.839 471.749 138.457 472.487 148.01 473.727C149.342 473.899 150.444 472.457 150.409 471.114C150.374 469.77 149.556 468.584 148.709 467.54C143.614 461.264 136.174 456.938 128.199 455.615C122.549 454.678 116.773 455.203 111.048 455.039C105.324 454.874 99.3486 453.905 94.7837 450.447C94.542 453.735 94.5227 457.04 94.7261 460.331C94.8084 461.663 94.9429 463.044 95.6217 464.193C96.1907 465.156 97.0946 465.871 98.0168 466.504ZM329.709 211.084C330.607 212.714 332.05 213.971 333.528 215.103C335.129 216.33 336.859 217.479 338.826 217.929C343.668 219.038 348.62 215.45 350.661 210.921C352.702 206.391 352.495 201.199 352.023 196.254C351.665 192.515 351.179 188.788 350.564 185.082C350.462 184.465 350.343 183.819 349.955 183.327C349.273 182.465 348.026 182.365 346.927 182.336C341.024 182.179 335.12 182.022 329.216 181.865C327.909 181.831 326.053 182.456 326.441 183.704C328.178 189.294 328.936 195.187 328.669 201.034C328.513 204.447 328.06 208.092 329.709 211.084M538.638 314.869C544.906 304.754 546.782 292.018 543.697 280.526C540.97 270.365 534.631 261.363 532.621 251.036C527.937 265.25 523.22 280.551 527.457 294.904C529.629 302.26 534.016 308.748 538.638 314.869ZM434.799 474.005C453.441 469.203 470.649 458.967 483.765 444.876C487.689 440.66 491.706 436.531 495.813 432.492C485.753 433.871 475.932 436.982 466.914 441.647C453.155 448.764 441.082 459.846 434.799 474.005ZM548.376 350.268C555.232 343.825 562.088 337.381 568.945 330.937C545.758 333.893 524.104 347.291 511.111 366.721C514.46 369.301 519.265 367.782 523.171 366.166C528.605 363.919 534.085 361.647 538.922 358.305C542.328 355.951 545.359 353.104 548.376 350.268ZM97.4246 491.096C97.4824 491.691 97.5528 492.321 97.9135 492.798C98.7027 493.843 100.312 493.586 101.568 493.219C115.956 489.015 130.143 484.119 144.061 478.555C145.065 478.154 146.235 477.519 146.255 476.439C135.578 475.698 124.9 474.958 114.222 474.217C111.61 474.036 108.988 473.853 106.428 473.307C102.576 472.485 98.904 470.834 95.7325 468.499C95.965 476.05 96.695 483.576 97.4246 491.096ZM434.733 418.849C433.871 419.471 433.523 420.569 433.227 421.589C432.21 425.092 431.189 428.808 432.133 432.331C432.614 434.126 433.579 435.747 434.533 437.342C437.172 441.754 439.812 446.165 442.451 450.577C442.697 450.987 442.963 451.418 443.387 451.641C444.647 452.302 445.891 450.748 446.476 449.45C450.275 441.025 454.159 432.116 453.298 422.915C453.165 421.5 452.781 419.894 451.517 419.246C450.936 418.948 450.262 418.91 449.61 418.877C445.697 418.683 441.784 418.489 437.872 418.294C436.789 418.241 435.611 418.213 434.733 418.849ZM494.537 387.658C494.437 393.588 499.61 398.546 505.284 400.272C510.958 401.998 517.047 401.255 522.944 400.622C533.312 399.509 544.278 398.591 552.802 392.583C554.693 391.25 556.481 389.605 557.325 387.451C558.643 384.09 557.318 380.122 554.841 377.496C552.363 374.87 548.929 373.369 545.491 372.268C533.206 368.335 519.565 368.789 507.568 373.528C501.239 376.028 494.652 380.854 494.537 387.658ZM96.4483 448.231C97.5651 449.273 99.8288 449.539 100.264 448.075C101.756 443.059 105.111 438.758 109.062 435.326C113.014 431.894 117.569 429.244 122.095 426.615C123.316 425.906 123.239 424.147 123.003 422.755C122.546 420.059 122.089 417.363 121.632 414.667C121.516 413.984 121.288 413.17 120.619 412.987C120.072 412.837 119.532 413.207 119.085 413.556C115.838 416.092 112.592 418.627 109.345 421.162C102.84 426.242 95.8688 432.07 94.4581 440.202C93.9666 443.035 94.3458 446.27 96.4483 448.231M121.773 430.083C114.482 434.636 106.764 439.677 103.451 447.609C103.244 448.103 103.054 448.622 103.07 449.157C103.102 450.212 103.953 451.102 104.928 451.507C105.902 451.913 106.988 451.931 108.044 451.943C114.286 452.017 120.528 452.09 126.769 452.164C127.073 452.167 127.402 452.163 127.642 451.976C128.02 451.681 127.982 451.107 127.907 450.633C126.911 444.341 125.915 438.049 124.92 431.756C124.778 430.861 124.489 429.79 123.616 429.547C122.98 429.369 122.333 429.733 121.773 430.083ZM431.879 419.235C427.283 418.05 422.326 418.308 417.879 419.965C418.74 422.792 420.266 425.413 422.299 427.556C429.151 434.78 431.177 445.268 431.954 455.194C432.37 460.495 432.516 465.818 432.393 471.135C435.403 466.492 438.412 461.849 441.422 457.206C441.721 456.745 442.03 456.256 442.062 455.707C442.095 455.157 441.846 454.634 441.593 454.145C438.623 448.41 434.259 443.465 431.503 437.624C428.748 431.783 427.903 424.325 431.879 419.235ZM123.982 176.203C121.447 176.606 118.556 177.25 117.352 179.516C116.52 181.083 116.766 182.979 117.033 184.733C118.135 191.957 119.236 199.182 120.338 206.406C125.976 196.268 131.255 185.936 136.532 175.607C135.555 174.502 133.824 174.642 132.368 174.873C129.573 175.317 126.777 175.76 123.982 176.203ZM470.981 421.496C471.762 422.531 473.799 421.385 473.32 420.18C480.849 422.342 489.057 420.803 496.169 417.519C503.281 414.234 509.49 409.313 515.601 404.412C513.035 404.053 510.468 403.695 507.902 403.336C507.378 403.263 506.699 403.273 506.499 403.762C505.117 407.145 502.142 409.679 498.857 411.279C495.571 412.879 491.956 413.654 488.382 414.416C485.902 414.944 483.421 415.473 480.941 416.001C477.099 416.819 472.767 417.998 470.981 421.496ZM334.766 369.11C335.248 368.988 335.766 368.843 336.074 368.452C336.553 367.847 336.313 366.976 336.188 366.214C336.062 365.452 336.255 364.438 337.016 364.306C337.709 364.444 338.029 365.267 338.046 365.973C338.063 366.68 337.907 367.417 338.163 368.076C338.732 369.544 340.758 369.602 342.319 369.403C343.243 369.285 344.167 369.167 345.091 369.05C345.38 369.013 345.689 368.967 345.905 368.77C346.588 368.144 345.637 367.122 345.425 366.22C345.262 365.522 345.588 364.768 345.374 364.085C345.01 362.921 343.462 362.742 342.242 362.783C332.917 363.092 323.592 363.402 314.266 363.711C314.426 365.476 314.909 367.211 315.684 368.804C315.85 369.148 316.047 369.502 316.378 369.692C316.715 369.885 317.126 369.872 317.513 369.854C319.831 369.747 322.149 369.639 324.467 369.531C324.665 369.522 324.872 369.51 325.037 369.401C325.46 369.121 325.313 368.476 325.119 368.008C324.784 367.201 324.449 366.395 324.115 365.589C323.823 364.887 325.093 364.472 325.628 365.011C326.162 365.551 326.182 366.397 326.434 367.113C326.957 368.6 328.538 369.507 330.102 369.698C331.667 369.889 333.238 369.498 334.766 369.11ZM470.199 418.476C470.707 417.935 469.586 417.37 468.85 417.46C464.65 417.975 460.451 418.49 456.252 419.005C455.691 419.074 454.949 419.382 455.083 419.931C456.462 425.581 455.945 431.678 453.632 437.014C453.192 438.031 452.903 439.583 453.957 439.924C458.336 432.064 463.82 424.821 470.199 418.476ZM327.121 373.372C326.989 372.915 326.841 372.436 326.494 372.113C326.099 371.745 325.529 371.652 324.993 371.593C322.242 371.292 319.438 371.481 316.751 372.148C317.592 374.874 318.432 377.599 319.272 380.325C319.432 380.841 319.646 381.421 320.147 381.623C320.404 381.727 320.691 381.709 320.967 381.69C323.683 381.499 326.4 381.309 329.116 381.118C328.526 378.517 327.861 375.934 327.121 373.372ZM309.435 382.902C309.737 383.067 310.106 383.017 310.445 382.961C312.905 382.56 315.364 382.16 317.823 381.759C316.936 378.915 316.048 376.071 315.161 373.227C315.031 372.81 314.869 372.352 314.484 372.144C314.18 371.98 313.811 372.015 313.467 372.055C311.275 372.31 309.082 372.565 306.889 372.82C306.477 372.868 305.989 372.971 305.836 373.357C305.732 373.619 305.83 373.913 305.928 374.177C306.894 376.784 307.86 379.391 308.826 381.998C308.955 382.346 309.108 382.724 309.435 382.902ZM337.066 371.541C336.546 371.089 335.776 371.12 335.09 371.177C332.924 371.355 330.758 371.533 328.592 371.711C329.24 374.486 330.055 377.223 331.032 379.9C331.16 380.251 331.305 380.621 331.603 380.846C331.975 381.127 332.485 381.111 332.951 381.083C334.429 380.994 335.908 380.905 337.386 380.816C338.067 380.775 338.895 380.629 339.124 379.987C339.233 379.678 339.162 379.337 339.091 379.017C338.641 377.014 338.191 375.011 337.742 373.009C337.621 372.474 337.48 371.901 337.066 371.541ZM324.145 391.48C323.931 391.514 323.703 391.554 323.547 391.705C323.243 391.998 323.382 392.502 323.542 392.893C324.111 394.285 324.68 395.678 325.249 397.07C325.46 397.587 325.698 398.136 326.169 398.435C326.605 398.711 327.153 398.717 327.668 398.714C329.634 398.702 331.599 398.69 333.564 398.679C333.852 398.677 334.164 398.667 334.386 398.483C334.788 398.151 334.638 397.513 334.453 397.026C333.697 395.033 332.941 393.04 332.185 391.047C331.942 390.407 331.052 390.398 330.376 390.504C328.299 390.829 326.222 391.155 324.145 391.48ZM340.68 371.147C340.267 371.148 339.803 371.171 339.524 371.477C339.188 371.845 339.295 372.421 339.422 372.903C339.981 375.015 340.54 377.128 341.098 379.24C341.197 379.611 341.311 380.008 341.609 380.251C342.005 380.574 342.577 380.513 343.082 380.436C344.945 380.152 346.808 379.867 348.671 379.583C348.471 377.42 348.128 375.272 347.644 373.155C347.493 372.493 347.284 371.771 346.711 371.407C346.282 371.135 345.742 371.128 345.234 371.13C343.716 371.136 342.198 371.141 340.68 371.147ZM344.472 398.43C343.869 396.238 343.265 394.045 342.661 391.852C342.431 391.015 342.104 390.066 341.294 389.75C340.895 389.595 340.451 389.629 340.025 389.666C338.037 389.839 336.048 390.012 334.06 390.185C334.584 392.149 335.205 394.087 335.919 395.99C336.279 396.948 336.824 398.034 337.834 398.197C340.026 398.552 342.262 398.63 344.472 398.43ZM347.933 398.278C349.735 398.425 351.713 398.525 353.17 397.454C352.538 394.998 351.907 392.542 351.275 390.086C351.133 389.533 350.943 388.917 350.436 388.654C350.064 388.46 349.617 388.513 349.202 388.571C347.416 388.82 345.631 389.068 343.845 389.317C344.27 391.917 344.99 394.468 345.988 396.906C346.141 397.281 346.314 397.669 346.634 397.915C346.996 398.194 347.479 398.241 347.933 398.278ZM508.521 363.314C509.897 360.489 511.274 357.664 512.65 354.839C512.795 354.542 512.943 354.221 512.891 353.895C512.839 353.578 512.608 353.324 512.387 353.09C510.428 351.019 508.469 348.947 506.509 346.875C505.695 347.987 505.789 349.499 505.919 350.871C506.345 355.374 506.772 359.878 507.198 364.382C507.798 364.515 508.252 363.866 508.521 363.314ZM349.913 370.82C349.656 370.802 349.363 370.797 349.183 370.982C348.982 371.19 349.026 371.525 349.085 371.808C349.473 373.678 349.86 375.548 350.248 377.418C350.392 378.111 350.562 378.852 351.085 379.329C352.777 380.872 356.037 378.218 357.61 379.883C357.887 377.227 357.688 374.523 357.026 371.937C356.979 371.755 356.924 371.563 356.785 371.438C356.624 371.293 356.39 371.271 356.174 371.256C354.087 371.111 352 370.966 349.913 370.82ZM310.981 384.689C310.755 384.72 310.52 384.754 310.334 384.886C309.923 385.178 309.939 385.784 309.998 386.285C310.155 387.622 310.329 389.007 311.028 390.158C311.728 391.308 313.11 392.16 314.411 391.812C316.274 391.312 318.138 390.812 320.002 390.312C319.921 388.531 319.56 386.763 318.937 385.092C318.782 384.675 318.586 384.236 318.203 384.01C317.805 383.776 317.308 383.831 316.85 383.893C314.894 384.158 312.937 384.424 310.981 384.689ZM354.449 369.06C355.01 368.975 355.608 368.873 356.025 368.488C357.266 367.341 355.847 365.01 356.853 363.653C357.246 363.122 356.284 362.648 355.625 362.676C352.681 362.8 349.737 362.925 346.793 363.049C346.907 364.267 347.119 365.476 347.425 366.66C347.767 367.98 349.054 368.883 350.386 369.176C351.717 369.468 353.101 369.265 354.449 369.06ZM330.655 384.917C330.276 383.096 327.838 382.67 326.009 383.011C324.181 383.352 322.138 384.012 320.584 382.99C320.683 384.912 321.132 386.817 321.903 388.581C322.065 388.951 322.261 389.338 322.613 389.537C323.01 389.761 323.501 389.69 323.951 389.612C325.753 389.301 327.556 388.99 329.359 388.678C330.252 388.524 331.43 387.817 330.96 387.041C330.585 386.423 330.802 385.624 330.655 384.917ZM319.519 392.393C318.046 392.642 316.573 392.892 315.1 393.141C314.303 393.276 313.32 393.596 313.235 394.4C313.02 396.434 315.046 398.073 317.05 398.478C319.054 398.883 321.134 398.487 323.169 398.688C323.085 396.96 322.723 395.245 322.102 393.63C321.954 393.246 321.778 392.849 321.452 392.598C320.923 392.19 320.177 392.281 319.519 392.393ZM358.334 388.448C356.38 388.241 354.393 388.345 352.47 388.754C353.533 391.284 354.287 393.943 354.712 396.654C354.906 397.897 356.681 397.921 357.9 397.611C358.355 397.495 358.851 397.35 359.111 396.96C359.334 396.623 359.324 396.188 359.305 395.784C359.2 393.552 359.096 391.319 358.991 389.087C358.985 388.946 358.975 388.797 358.894 388.681C358.775 388.51 358.542 388.47 358.334 388.448ZM326.419 408.449C328.262 406.609 327.317 402.896 324.819 402.161C322.321 401.425 319.516 404.035 320.069 406.58C320.64 409.21 324.513 410.35 326.419 408.449ZM340.905 386.885C342.077 385.355 340.322 383.096 338.423 382.763C336.524 382.43 334.6 383.158 332.672 383.13C331.962 383.119 331.932 384.188 332.163 384.859C332.462 385.728 332.76 386.597 333.059 387.466C333.181 387.822 333.402 388.248 333.777 388.225C335.152 388.139 336.526 388.053 337.901 387.967C338.998 387.898 340.236 387.758 340.905 386.885ZM359.904 401.659C359.762 401.275 359.552 400.9 359.221 400.658C358.924 400.442 358.553 400.35 358.188 400.306C355.303 399.958 352.503 402.836 352.929 405.71C354.157 407.17 356.469 407.573 358.118 406.615C359.767 405.657 360.563 403.449 359.904 401.659ZM342.096 384.282C342.033 385.546 343.145 386.625 344.363 386.966C345.582 387.307 346.879 387.087 348.125 386.865C348.763 386.751 349.478 386.587 349.812 386.031C350.524 384.847 349.11 382.676 350.415 382.222C349.539 382.101 348.664 381.981 347.788 381.861C346.631 381.702 345.435 381.546 344.313 381.866C343.19 382.186 342.155 383.116 342.096 384.282ZM352.565 385.9C353.892 387.053 356.113 386.894 357.346 385.641C358.579 384.387 358.74 382.263 357.81 380.77C355.487 381.201 353.165 381.632 350.842 382.062C351.135 383.46 351.487 384.962 352.565 385.9ZM532.018 363.702C530.209 364.372 528.401 365.042 526.592 365.712C525.694 366.045 524.783 366.384 524.005 366.943C526.963 368.097 530.694 366.589 532.018 363.702ZM363.927 220.173C363.88 219.374 363.035 218.721 362.25 218.877C362.3 219.69 363.111 220.373 363.921 220.286L363.927 220.173Z" fill="#00160A"/>
</svg>
