<svg xmlns="http://www.w3.org/2000/svg" version="1.1" xmlns:xlink="http://www.w3.org/1999/xlink" xmlns:svgjs="http://svgjs.dev/svgjs" width="1000" height="750" viewBox="0 0 1000 750"><rect width="1000" height="750" fill="#ffffff"></rect><g transform="matrix(0.834,0,0,0.834,83,114.375)"><svg viewBox="0 0 576 360" data-background-color="#ffffff" preserveAspectRatio="xMidYMid meet" height="625" width="1000" xmlns="http://www.w3.org/2000/svg" xmlns:xlink="http://www.w3.org/1999/xlink"><defs></defs><g id="tight-bounds" transform="matrix(1,0,0,1,0,0)"><svg viewBox="0 0 576 360" height="360" width="576"><g><svg></svg></g><g><svg viewBox="0 0 576 360" height="360" width="576"><g><path d="M132.115 90l155.885-90 155.885 90v180l-155.885 90-155.885-90zM135.818 267.862l152.182 87.862 152.182-87.862v-175.724l-152.182-87.862-152.182 87.862z" fill="#ff0000" data-fill-palette-color="tertiary"></path></g><g transform="matrix(1,0,0,1,172.8,146.78726868985936)"><svg viewBox="0 0 230.4 66.42546262028127" height="66.42546262028127" width="230.4"><g><svg viewBox="0 0 230.4 66.42546262028127" height="66.42546262028127" width="230.4"><g><svg viewBox="0 0 230.4 66.42546262028127" height="66.42546262028127" width="230.4"><g><svg viewBox="0 0 230.4 66.42546262028127" height="66.42546262028127" width="230.4"><g><svg viewBox="0 0 230.4 66.42546262028127" height="66.42546262028127" width="230.4"><g><svg viewBox="0 0 230.4 66.42546262028127" height="66.42546262028127" width="230.4"><g transform="matrix(1,0,0,1,0,0)"><svg width="230.4" viewBox="1 -38 135.08999633789062 38.95000076293945" height="66.42546262028127" data-palette-color="#ff0000"><path d="M3.2-35.9Q3.85-35.9 7.28-35.7 10.7-35.5 20.75-35.5 30.8-35.5 32.9-35.8L32.9-35.8Q33.45-35.8 33.65-35.5 33.85-35.2 33.85-34.95L33.85-34.95 34.15-30.9Q34.15-29.65 34-29.33 33.85-29 33.35-29L33.35-29Q32.95-29 32.68-30.03 32.4-31.05 32.1-31.6L32.1-31.6Q31.35-32.9 27.75-32.9L27.75-32.9 21.25-32.9Q20.05-32.9 19.78-32.43 19.5-31.95 19.5-29.7L19.5-29.7 19.5-27.25 19.35-8.95 19.3-5.7Q19.3-3.55 19.98-2.9 20.65-2.25 21.45-1.93 22.25-1.6 22.8-1.55L22.8-1.55Q24.2-1.45 24.2-0.65L24.2-0.65Q24.2-0.1 23.95 0.05 23.7 0.2 23 0.2L23 0.2 17.45-0.2 12.35 0.15Q10.5 0.15 10.5-0.65L10.5-0.65Q10.5-1.15 10.8-1.33 11.1-1.5 11.98-1.63 12.85-1.75 13.1-1.8L13.1-1.8Q14.8-2.2 15-3.8L15-3.8Q15.5-8.2 15.5-22.7L15.5-22.7 15.45-31.65Q15.45-32.6 14.9-32.83 14.35-33.05 11.25-33.05 8.15-33.05 6.38-32.85 4.6-32.65 4.3-32.48 4-32.3 3.58-31.75 3.15-31.2 2.88-30.48 2.6-29.75 2.5-29.3L2.5-29.3Q2.35-28.15 1.55-28.15L1.55-28.15Q1-28.15 1-29L1-29Q1-31 1.25-32.63 1.5-34.25 1.53-34.5 1.55-34.75 1.58-34.83 1.6-34.9 1.63-35.08 1.65-35.25 1.7-35.33 1.75-35.4 1.83-35.52 1.9-35.65 2-35.7 2.1-35.75 2.25-35.8L2.25-35.8Q2.55-35.9 3.2-35.9ZM39.05 0.75L39.05 0.75Q33.15 0.75 33.15-4.25L33.15-4.25Q33.15-7.85 36.15-9.2L36.15-9.2Q38.65-10.25 43.8-11.1L43.8-11.1Q43.95-11.15 44.2-11.18 44.45-11.2 44.72-11.25 45-11.3 45.15-11.35L45.15-11.35Q45.5-11.5 45.5-12.05L45.5-12.05 45.6-14.65Q45.6-17.5 43.95-18.78 42.3-20.05 40.75-20.05L40.75-20.05Q37.15-20.05 37.15-17.05L37.15-17.05 37.35-15.25Q37.35-14.25 36.45-14.25L36.45-14.25Q35.75-14.25 34.9-14.5L34.9-14.5Q33.35-15 33.35-16.2L33.35-16.2Q33.35-18.15 35.97-19.93 38.6-21.7 41.25-21.7 43.9-21.7 45.4-21.2 46.9-20.7 47.62-20.08 48.35-19.45 48.75-18.4L48.75-18.4Q49.25-17.15 49.25-14.48 49.25-11.8 49.12-9.73 49-7.65 49-5.95 49-4.25 49.4-3.18 49.8-2.1 50.35-1.8 50.9-1.5 51.45-1.45L51.45-1.45Q52.8-1.35 52.8-0.65L52.8-0.65Q52.8 0.4 49.65 0.4L49.65 0.4Q48.35 0.4 47.42-0.3 46.5-1 46.1-1.68 45.7-2.35 45.65-2.35 45.6-2.35 45.25-2.02 44.9-1.7 44.27-1.25 43.65-0.8 42.85-0.35L42.85-0.35Q41 0.75 39.05 0.75ZM45.15-10.4L45.15-10.4 44.65-10.3Q43.5-10.1 43.2-10.05 42.9-10 41.8-9.75 40.7-9.5 40.27-9.3 39.85-9.1 39.07-8.68 38.3-8.25 37.95-7.8L37.95-7.8Q37.05-6.4 37.05-4.85 37.05-3.3 38.05-2.27 39.05-1.25 40.62-1.25 42.2-1.25 43.12-1.65 44.05-2.05 44.5-2.55 44.95-3.05 45.2-3.9L45.2-3.9Q45.5-4.85 45.5-6.35L45.5-6.35 45.5-9.95Q45.5-10.4 45.15-10.4ZM55.8-33.95L55.8-33.95 54.8-33.9Q53.8-33.9 53.8-34.45 53.8-35 56.25-35.75L56.25-35.75Q56.59-35.85 57.07-36 57.55-36.15 57.65-36.18 57.75-36.2 58.02-36.3 58.3-36.4 58.32-36.43 58.34-36.45 58.57-36.55 58.8-36.65 58.9-36.73 59-36.8 59.3-36.98 59.59-37.15 60.27-37.58 60.95-38 61.59-38 62.25-38 62.25-37.05L62.25-37.05Q62.25-36.95 62.2-36.48 62.15-36 62.07-35.08 62-34.15 61.95-32.8L61.95-32.8Q61.8-28.85 61.8-24.4L61.8-24.4Q61.8-24.4 61.65-14.15L61.65-14.15 61.65-13.1Q61.65-11 61.84-11L61.84-11Q62.3-11 62.77-11.5 63.25-12 63.45-12.15L63.45-12.15Q70.45-17.75 70.45-18.45 70.45-19.15 69.32-19.6 68.2-20.05 68.2-20.45L68.2-20.45Q68.2-20.95 68.8-20.95L68.8-20.95 69.7-20.9 77.05-21.15Q78.34-21.15 78.34-20.75 78.34-20.35 78.05-20.2 77.75-20.05 77.25-20L77.25-20Q75.59-19.75 73.55-18.35L73.55-18.35Q73.4-18.25 73.22-18.1 73.05-17.95 72.57-17.6 72.09-17.25 71.45-16.75 70.8-16.25 69.05-14.93 67.3-13.6 66.9-13.25 66.5-12.9 66.5-12.5 66.5-12.1 67.05-11.35L67.05-11.35Q71.59-5.8 74.84-2.95L74.84-2.95Q76.2-1.75 77.57-1.4 78.95-1.05 79.55-1.05 80.15-1.05 80.15-0.6L80.15-0.6Q80.15 0 79.72 0.13 79.3 0.25 78.09 0.25L78.09 0.25 72.9 0.2Q71.65 0.2 65.05-7.95L65.05-7.95Q63.75-9.55 63.62-9.75 63.5-9.95 63.07-9.95 62.65-9.95 62.12-9.25 61.59-8.55 61.59-7.65L61.59-7.65 61.65-6.8Q61.65-3.2 62.05-2.7L62.05-2.7Q62.09-2.65 62.52-2.08 62.95-1.5 64.62-1.2 66.3-0.9 66.3-0.45L66.3-0.45Q66.3 0.35 64.75 0.35L64.75 0.35 59.9 0.05 56.25 0.25Q55.05 0.25 55.05-0.35L55.05-0.35Q55.05-0.85 56.3-1.2L56.3-1.2Q57.45-1.65 57.75-2.5 58.05-3.35 58.05-5.8L58.05-5.8 58.09-8 58.15-30.2Q58.15-33.95 55.8-33.95ZM92.59 0.95Q88.19 0.95 85.12-1.75 82.04-4.45 82.04-9.58 82.04-14.7 84.87-18.15 87.69-21.6 92.19-21.6L92.19-21.6Q94.29-21.6 96.02-20.85 97.74-20.1 98.69-19.03 99.64-17.95 100.29-16.75L100.29-16.75Q101.39-14.7 101.39-13.65L101.39-13.65Q101.39-12.75 99.34-12.75L99.34-12.75 86.49-12.75Q86.09-12.75 86.02-12.68 85.94-12.6 85.94-12.2L85.94-12.2Q85.94-7.5 88.47-4.8 90.99-2.1 94.39-2.1L94.39-2.1Q96.49-2.1 98.67-3.23 100.84-4.35 100.94-4.35L100.94-4.35Q101.44-4.35 101.44-3.9L101.44-3.9Q101.44-3.3 100.34-2.27 99.24-1.25 98.24-0.6L98.24-0.6Q95.84 0.95 92.59 0.95L92.59 0.95ZM86.89-13.95L86.89-13.95 95.69-14.25Q96.39-14.25 96.57-14.38 96.74-14.5 96.74-14.85L96.74-14.85Q96.74-16.35 95.34-18.35 93.94-20.35 91.44-20.35 88.94-20.35 87.59-18.38 86.24-16.4 86.24-14.65L86.24-14.65Q86.24-13.95 86.89-13.95ZM109.34-17.25L109.34-20.1 109.39-25.5 109.39-27.8Q109.39-30 109.22-31.33 109.04-32.65 107.86-33.3 106.69-33.95 105.54-34 104.39-34.05 104.39-34.77 104.39-35.5 105.79-35.5L105.79-35.5 111.44-35.3 115.84-35.4Q117.19-35.4 117.19-34.7L117.19-34.7Q117.19-34.3 114.89-33.35L114.89-33.35Q113.29-32.7 113.29-27.6L113.29-27.6 113.14-9.1Q113.14-4.9 114.31-3.2 115.49-1.5 116.79-1.5L116.79-1.5 117.79-1.45Q118.14-1.45 118.49-1.28 118.84-1.1 118.84-0.7L118.84-0.7Q118.84 0 117.59 0L117.59 0 112.84-0.2 107.34 0.05Q105.09 0.05 105.09-0.7L105.09-0.7Q105.09-1.4 106.64-1.6L106.64-1.6Q107.24-1.65 107.89-2.23 108.54-2.8 108.72-3.53 108.89-4.25 109.11-9.58 109.34-14.9 109.34-17.25L109.34-17.25ZM122.94-18.55L122.94-18.55 121.99-18.5Q121.14-18.5 121.14-19.2L121.14-19.2Q121.14-19.7 121.59-20.05L121.59-20.05Q123.49-21.3 125.39-23.8L125.39-23.8Q126.19-24.95 126.66-25.48 127.14-26 127.64-26 128.14-26 128.14-24.85L128.14-24.85Q128.14-24.85 127.94-22L127.94-22Q127.94-21.3 128.21-21.15 128.49-21 129.99-21L129.99-21 131.74-21Q133.99-21 134.49-21.25L134.49-21.25Q135.39-21.7 135.59-21.7L135.59-21.7Q136.09-21.7 136.09-21.15L136.09-21.15Q136.09-20.75 135.44-19.58 134.79-18.4 134.49-18.4L134.49-18.4Q132.24-18.4 131.34-18.5 130.44-18.6 130.14-18.63 129.84-18.65 129.61-18.68 129.39-18.7 129.29-18.7L129.29-18.7 129.19-18.75Q128.24-18.75 127.96-18.45 127.69-18.15 127.69-17.1L127.69-17.1 127.49-7.8Q127.49-4.55 128.31-3.28 129.14-2 131.79-2L131.79-2Q132.84-2 134.11-2.48 135.39-2.95 135.49-2.95L135.49-2.95Q135.99-2.95 135.99-2.3 135.99-1.65 134.26-0.58 132.54 0.5 130.54 0.5L130.54 0.5Q123.79 0.5 123.79-5.35L123.79-5.35 123.79-6.1 123.99-17.75Q123.99-18.25 123.79-18.4 123.59-18.55 122.94-18.55Z" opacity="1" transform="matrix(1,0,0,1,0,0)" fill="#ff0000" class="undefined-text-0" data-fill-palette-color="primary" id="text-0"></path></svg></g></svg></g></svg></g></svg></g><g></g></svg></g></svg></g></svg></g></svg></g></svg><rect width="576" height="360" fill="none" stroke="none" visibility="hidden"></rect></g></svg></g></svg>